SplineFontDB: 3.2
FontName: Stereometric
FullName: Stereometric
FamilyName: Stereometric
Weight: Regular
Version: Version 1.000
ItalicAngle: 0
UnderlinePosition: -125
UnderlineWidth: 50
Ascent: 56
Descent: 14
InvalidEm: 0
sfntRevision: 0x00010000
LayerCount: 2
Layer: 0 0 "+BBcEMAQ0BD0EOAQ5 +BD8EOwQwBD0A" 1
Layer: 1 0 "+BB8ENQRABDUENAQ9BDgEOQAA +BD8EOwQwBD0A" 0
XUID: [1021 610 536228263 26663]
StyleMap: 0x0040
FSType: 4
OS2Version: 4
OS2_WeightWidthSlopeOnly: 0
OS2_UseTypoMetrics: 1
CreationTime: 1718779410
ModificationTime: 1718867013
PfmFamily: 81
TTFWeight: 400
TTFWidth: 5
LineGap: 50
VLineGap: 0
Panose: 0 0 0 0 0 0 0 0 0 0
OS2TypoAscent: 50
OS2TypoAOffset: 0
OS2TypoDescent: 0
OS2TypoDOffset: 0
OS2TypoLinegap: 50
OS2WinAscent: 50
OS2WinAOffset: 0
OS2WinDescent: 10
OS2WinDOffset: 0
HheadAscent: 50
HheadAOffset: 0
HheadDescent: 0
HheadDOffset: 0
OS2SubXSize: 650
OS2SubYSize: 600
OS2SubXOff: 0
OS2SubYOff: 75
OS2SupXSize: 650
OS2SupYSize: 600
OS2SupXOff: 0
OS2SupYOff: 350
OS2StrikeYSize: 50
OS2StrikeYPos: 300
OS2CapHeight: 50
OS2XHeight: 500
OS2Vendor: '    '
OS2CodePages: 00000005.00000000
OS2UnicodeRanges: 00000203.00000008.00000000.00000000
Lookup: 4 0 0 "'dlig' Discretionary Ligatures lookup 0" { "'dlig' Discretionary Ligatures lookup 0 subtable"  } ['dlig' ('DFLT' <'dflt' > 'cyrl' <'dflt' > 'latn' <'dflt' > ) ]
Lookup: 260 0 0 "'mark' Mark Positioning lookup 0" { "'mark' Mark Positioning lookup 0 subtable"  } ['mark' ('DFLT' <'dflt' > 'cyrl' <'dflt' > 'latn' <'dflt' > ) ]
Lookup: 258 8 0 "'kern' Horizontal Kerning lookup 1" { "'kern' Horizontal Kerning lookup 1 per glyph data 0"  "'kern' Horizontal Kerning lookup 1 kerning class 1"  } ['kern' ('DFLT' <'dflt' > 'cyrl' <'dflt' > 'latn' <'dflt' > ) ]
DEI: 91125
KernClass2: 5 3 "'kern' Horizontal Kerning lookup 1 kerning class 1"
 39 uni040E uni0423 uni0443 uni045E uni04F0
 51 uni0403 uni0413 uni0433 uni0453 uni04A4 AG DG LG MG
 31 uni0420 uni0424 uni0440 uni0444
 31 uni040C uni041A uni043A uni045C

StartChar: exclam
Encoding: 33 33 4
Width: 16
GlyphClass: 2
Flags: MW
HStem: 0 21G<7 9> 14 36<5 11 5 11>
VStem: 4 7
LayerCount: 2
Fore
SplineSet
11 14 m 1x60
 5 14 l 1
 5 50 l 1
 11 50 l 1
 11 14 l 1x60
4 4 m 0
 4 6 6 8 8 8 c 0
 10 8 12 6 12 4 c 0
 12 2 10 0 8 0 c 0xa0
 6 0 4 2 4 4 c 0
EndSplineSet
EndChar

StartChar: hyphen
Encoding: 45 45 5
Width: 26
GlyphClass: 2
Flags: MW
HStem: 21 6<4 22 4 22>
VStem: 4 18<21 27 21 27>
LayerCount: 2
Fore
SplineSet
4 27 m 1
 22 27 l 1
 22 21 l 1
 4 21 l 1
 4 27 l 1
EndSplineSet
EndChar

StartChar: period
Encoding: 46 46 6
Width: 16
GlyphClass: 2
Flags: MW
HStem: 0 21G<7 9>
VStem: 4 8<3 5>
LayerCount: 2
Fore
SplineSet
4 4 m 0
 4 6 6 8 8 8 c 0
 10 8 12 6 12 4 c 0
 12 2 10 0 8 0 c 0
 6 0 4 2 4 4 c 0
EndSplineSet
EndChar

StartChar: zero
Encoding: 48 48 7
Width: 30
GlyphClass: 2
Flags: MW
HStem: 0 21G<10.5 19.5> 30 20G<10.5 19.5>
VStem: 2 26<13 37 9.5 40.5>
LayerCount: 2
Fore
SplineSet
2 13 m 2
 2 37 l 2
 2 44 6 50 15 50 c 0
 24 50 28 44 28 37 c 2
 28 13 l 2
 28 6 24 0 15 0 c 0
 6 0 2 6 2 13 c 2
22 37 m 2
 22 42 19 44 15 44 c 0
 11 44 8 42 8 37 c 2
 8 13 l 2
 8 8 11 6 15 6 c 0
 19 6 22 8 22 13 c 2
 22 37 l 2
EndSplineSet
EndChar

StartChar: one
Encoding: 49 49 8
Width: 24
GlyphClass: 2
Flags: MW
HStem: 0 21G<14 20 14 14> 30 20G<4 20 20 20>
VStem: 4 15
LayerCount: 2
Fore
SplineSet
20 0 m 1
 14 0 l 1
 14 44 l 1
 4 44 l 1
 4 50 l 1
 20 50 l 1
 20 0 l 1
EndSplineSet
EndChar

StartChar: two
Encoding: 50 50 9
Width: 32
GlyphClass: 2
Flags: MW
HStem: 0 21G<2 30 2 2> 38 12<2 21.5 2 21.5>
VStem: 2 28<0 6 0 6>
LayerCount: 2
Fore
SplineSet
24 34 m 0
 24 38 22 44 16 44 c 0
 11 44 9 41 8 38 c 2
 2 38 l 1
 3 46 9 50 16 50 c 0
 27 50 30 41 30 34 c 0
 30 28 26 23 10 6 c 1
 30 6 l 1
 30 0 l 1
 2 0 l 1
 2 6 l 2
 5 9 24 27 24 34 c 0
EndSplineSet
EndChar

StartChar: three
Encoding: 51 51 10
Width: 38
GlyphClass: 2
Flags: MW
HStem: 0 21G<14.5 23.5> 0 32<19 20.5 19 23.5> 26 24<19 21.5> 30 20G<15.5 22.5>
VStem: 2 26
LayerCount: 2
Fore
SplineSet
3 16 m 1x28
 3 7 10 0 19 0 c 0
 28 0 35 7 35 16 c 0
 35 22 32 26 27 29 c 1
 30 31 31 35 31 38 c 0
 31 45 26 50 19 50 c 0xa8
 12 50 7 45 7 38 c 1
 13 38 l 1
 13 42 16 44 19 44 c 0
 22 44 25 42 25 38 c 0
 25 34 22 32 19 32 c 1x48
 19 26 l 1
 24 26 29 22 29 16 c 0
 29 10 24 6 19 6 c 0
 14 6 9 10 9 16 c 1
 3 16 l 1x28
EndSplineSet
EndChar

StartChar: four
Encoding: 52 52 11
Width: 32
GlyphClass: 2
Flags: MW
HStem: 0 24<4 25 4 19> 18 16<4 25 4 25 19 25 19 28> 30 20G<16 22 22 22>
VStem: 19 9<0 24 18 24 18 34>
LayerCount: 2
Fore
SplineSet
25 0 m 1xb0
 19 0 l 1xb0
 19 18 l 1
 4 18 l 1x70
 4 24 l 1
 16 50 l 1
 22 50 l 1
 10 24 l 1
 19 24 l 1xb0
 19 34 l 1
 25 34 l 1x70
 25 24 l 1
 28 24 l 1xb0
 28 18 l 1
 25 18 l 1x70
 25 0 l 1xb0
EndSplineSet
EndChar

StartChar: five
Encoding: 53 53 12
Width: 32
GlyphClass: 2
Flags: MW
HStem: 0 12<2 21.5> 22 10<2 21.5> 22 28<2 8 2 28>
VStem: 2 26<44 50 44 50 44 50>
LayerCount: 2
Fore
SplineSet
24 16 m 0xd0
 24 20 22 26 16 26 c 0
 11 26 9 24 8 22 c 2
 2 22 l 1
 2 50 l 1
 28 50 l 1xb0
 28 44 l 1
 8 44 l 1
 8 28 l 1
 10 31 12 32 16 32 c 0
 27 32 30 24 30 16 c 0
 30 9 27 0 16 0 c 0
 7 0 3 4 2 12 c 1
 8 12 l 2
 9 9 10 6 16 6 c 0
 22 6 24 12 24 16 c 0xd0
EndSplineSet
EndChar

StartChar: six
Encoding: 54 54 13
Width: 38
GlyphClass: 2
Flags: MW
HStem: 0 21G<14.5 23.5> 0 32<16 19 19 23.5> 26 24<16.5 28> 30 20G<22 28 28 28>
VStem: 2 26
LayerCount: 2
Fore
SplineSet
22 50 m 1xa8
 28 50 l 1xa8
 16 32 l 1
 19 32 l 2x58
 28 32 35 25 35 16 c 0
 35 7 28 0 19 0 c 0
 10 0 3 7 3 16 c 0
 3 18 3 22 6 27 c 2
 22 50 l 1xa8
9 16 m 0
 9 10 14 6 19 6 c 0
 24 6 29 10 29 16 c 0
 29 22 24 26 19 26 c 0
 14 26 9 22 9 16 c 0
EndSplineSet
EndChar

StartChar: seven
Encoding: 55 55 14
Width: 32
GlyphClass: 2
Flags: MW
HStem: 0 21G<10 16 10 10> 30 20G<4 28 28 28>
VStem: 4 24<44 50 44 50>
LayerCount: 2
Fore
SplineSet
16 0 m 1
 10 0 l 1
 22 44 l 1
 4 44 l 1
 4 50 l 1
 28 50 l 1
 28 44 l 1
 16 0 l 1
EndSplineSet
EndChar

StartChar: eight
Encoding: 56 56 15
Width: 38
GlyphClass: 2
Flags: MW
HStem: 0 21G<14.5 23.5> 0 32<17.5 20.5 17.5 23.5> 26 24<16.5 21.5> 30 20G<15.5 22.5>
VStem: 2 26
LayerCount: 2
Fore
SplineSet
7 38 m 0xa8
 7 45 12 50 19 50 c 0
 26 50 31 45 31 38 c 0
 31 35 30 31 27 29 c 1
 32 26 35 22 35 16 c 0
 35 7 28 0 19 0 c 0
 10 0 3 7 3 16 c 0
 3 22 6 26 11 29 c 1
 8 31 7 35 7 38 c 0xa8
9 16 m 0
 9 10 14 6 19 6 c 0
 24 6 29 10 29 16 c 0
 29 22 24 26 19 26 c 0
 14 26 9 22 9 16 c 0
13 38 m 0
 13 34 16 32 19 32 c 0x58
 22 32 25 34 25 38 c 0
 25 42 22 44 19 44 c 0
 16 44 13 42 13 38 c 0
EndSplineSet
EndChar

StartChar: nine
Encoding: 57 57 16
Width: 38
GlyphClass: 2
Flags: MW
HStem: 0 21G<10 16 10 10> 0 32 30 20G<14.5 23.5>
VStem: 2 26
LayerCount: 2
Fore
SplineSet
16 0 m 1x70
 10 0 l 1
 22 18 l 1
 19 18 l 2
 10 18 3 25 3 34 c 0
 3 43 10 50 19 50 c 0xf0
 28 50 35 43 35 34 c 0
 35 32 35 28 32 23 c 2
 16 0 l 1x70
29 34 m 0
 29 40 24 44 19 44 c 0
 14 44 9 40 9 34 c 0
 9 28 14 24 19 24 c 0
 24 24 29 28 29 34 c 0
EndSplineSet
EndChar

StartChar: colon
Encoding: 58 58 17
Width: 16
GlyphClass: 2
Flags: MW
HStem: 0 21G<7 9> 32 8<7 9>
VStem: 4 8<3 5 35 37>
LayerCount: 2
Fore
SplineSet
4 4 m 0
 4 6 6 8 8 8 c 0
 10 8 12 6 12 4 c 0
 12 2 10 0 8 0 c 0
 6 0 4 2 4 4 c 0
4 36 m 0
 4 38 6 40 8 40 c 0
 10 40 12 38 12 36 c 0
 12 34 10 32 8 32 c 0
 6 32 4 34 4 36 c 0
EndSplineSet
EndChar

StartChar: question
Encoding: 63 63 18
Width: 32
GlyphClass: 2
Flags: MW
HStem: 0 21G<15 17> 38 12<2 21.5 2 21.5>
VStem: 2 28<29.5 38> 13 7
LayerCount: 2
Fore
SplineSet
24 34 m 0xd0
 24 38 22 44 16 44 c 0
 11 44 9 41 8 38 c 2
 2 38 l 1
 3 46 9 50 16 50 c 0
 27 50 30 41 30 34 c 0xe0
 30 25 19 18 19 14 c 1
 13 14 l 1
 13 21 24 24 24 34 c 0xd0
12 4 m 0
 12 6 14 8 16 8 c 0
 18 8 20 6 20 4 c 0xd0
 20 2 18 0 16 0 c 0
 14 0 12 2 12 4 c 0
EndSplineSet
EndChar

StartChar: copyright
Encoding: 169 169 19
Width: 58
GlyphClass: 2
Flags: MW
HStem: 0 11<25 31 25 36> 39 11<25 31>
VStem: 4 11<21 29 21 32> 39 15<15 32 18 35>
LayerCount: 2
Fore
SplineSet
4 25 m 0
 4 39 15 50 29 50 c 0
 43 50 54 39 54 25 c 0
 54 11 43 0 29 0 c 0
 15 0 4 11 4 25 c 0
8 25 m 0
 8 15 16 4 29 4 c 0
 42 4 50 15 50 25 c 0
 50 35 42 46 29 46 c 0
 16 46 8 35 8 25 c 0
15 25 m 0
 15 17 21 11 29 11 c 0
 33 11 36 12 39 15 c 1
 37 17 l 2
 34 15 31 14 29 14 c 0
 23 14 18 19 18 25 c 0
 18 31 23 36 29 36 c 0
 31 36 34 35 37 33 c 2
 39 35 l 1
 36 38 33 39 29 39 c 0
 21 39 15 33 15 25 c 0
EndSplineSet
EndChar

StartChar: guillemotleft
Encoding: 171 171 20
Width: 30
GlyphClass: 2
Flags: MW
HStem: 10 20<11 11 11 24>
VStem: 2 26<14 20>
LayerCount: 2
Fore
SplineSet
11 10 m 1
 2 20 l 1
 11 30 l 1
 15 26 l 1
 9 20 l 1
 15 14 l 1
 11 10 l 1
24 10 m 1
 15 20 l 1
 24 30 l 1
 28 26 l 1
 22 20 l 1
 28 14 l 1
 24 10 l 1
EndSplineSet
EndChar

StartChar: guillemotright
Encoding: 187 187 21
Width: 30
GlyphClass: 2
Flags: MW
HStem: 10 20<6 6 6 19>
VStem: 2 26<14 20 20 26>
LayerCount: 2
Fore
SplineSet
19 10 m 1
 15 14 l 1
 21 20 l 1
 15 26 l 1
 19 30 l 1
 28 20 l 1
 19 10 l 1
6 10 m 1
 2 14 l 1
 8 20 l 1
 2 26 l 1
 6 30 l 1
 15 20 l 1
 6 10 l 1
EndSplineSet
EndChar

StartChar: uni0308
Encoding: 776 776 22
Width: 0
GlyphClass: 1
Flags: MW
HStem: 54 8<-7 -5 5 7>
VStem: -10 8<57 59> -10 20<57 59> 2 8<57 59>
AnchorPoint: "+BBEENQQ3BEsEPARPBD0EPQQ+BDUA--0" 0 50 mark 0
LayerCount: 2
Fore
SplineSet
-10 58 m 0xa0
 -10 60 -8 62 -6 62 c 0
 -4 62 -2 60 -2 58 c 0
 -2 56 -4 54 -6 54 c 0
 -8 54 -10 56 -10 58 c 0xa0
2 58 m 0xd0
 2 60 4 62 6 62 c 0
 8 62 10 60 10 58 c 0
 10 56 8 54 6 54 c 0
 4 54 2 56 2 58 c 0xd0
EndSplineSet
EndChar

StartChar: uni0401
Encoding: 1025 1025 23
Width: 30
GlyphClass: 2
Flags: MW
HStem: 0 36<10 18 10 26 4 18> 30 20<10 18 10 10> 44 18<20 22 8 26 8 10>
VStem: 4 14<30 36 30 50> 17 9
LayerCount: 2
Fore
SplineSet
26 0 m 1xa8
 4 0 l 1xb0
 4 50 l 1x50
 26 50 l 1x48
 26 44 l 1xa8
 10 44 l 1
 10 36 l 1
 18 36 l 1xb0
 18 30 l 1
 10 30 l 1x50
 10 6 l 1
 26 6 l 1
 26 0 l 1xa8
5 58 m 0
 5 60 7 62 9 62 c 0
 11 62 13 60 13 58 c 0
 13 56 11 54 9 54 c 0
 7 54 5 56 5 58 c 0
17 58 m 0
 17 60 19 62 21 62 c 0
 23 62 25 60 25 58 c 0
 25 56 23 54 21 54 c 0
 19 54 17 56 17 58 c 0
EndSplineSet
EndChar

StartChar: uni0402
Encoding: 1026 1026 24
Width: 40
GlyphClass: 2
Flags: MW
HStem: 0 36<10 22 10 22 22 27> 30 20<16 22 16 16>
VStem: 4 12<44 44> 10 12<0 6> 22 14<0 12 6 12>
LayerCount: 2
Fore
SplineSet
4 44 m 1xa8
 4 50 l 1x68
 22 50 l 1x50
 22 44 l 1
 16 44 l 1
 16 36 l 1
 22 36 l 2
 32 36 36 31 36 24 c 2
 36 12 l 2
 36 5 32 0 22 0 c 1xa8
 22 6 l 1
 28 6 30 8 30 12 c 2
 30 24 l 2
 30 28 28 30 22 30 c 2x50
 16 30 l 1x68
 16 0 l 1xa8
 10 0 l 1
 10 44 l 1x90
 4 44 l 1xa8
EndSplineSet
EndChar

StartChar: uni0403
Encoding: 1027 1027 25
Width: 26
GlyphClass: 2
Flags: MW
HStem: 0 21G<4 4 4 10> 30 20G<4 22 22 22> 44 10<11 15 11 22 10 15>
VStem: 4 18<44 50 44 50 44 50>
LayerCount: 2
Fore
SplineSet
4 0 m 1xb0
 4 50 l 1
 22 50 l 1xd0
 22 44 l 1
 10 44 l 1
 10 0 l 1
 4 0 l 1xb0
16 61 m 1
 11 54 l 1
 15 54 l 1xb0
 22 58 l 1
 16 61 l 1
EndSplineSet
EndChar

StartChar: uni0404
Encoding: 1028 1028 26
Width: 52
GlyphClass: 2
Flags: MW
HStem: 0 7 0 30<22 30 11 32.5> 24 26<22 30 10 32.5> 43 7
VStem: 4 7<30 30 30 32>
AnchorPoint: "+BBEENQQ3BEsEPARPBD0EPQQ+BDUA--0" 29 50 basechar 0
LayerCount: 2
Fore
SplineSet
4 25 m 0xa8
 4 39 15 50 29 50 c 0
 36 50 42 48 48 43 c 1
 44 39 l 1
 39 43 34 44 29 44 c 0
 20 44 13 38 11 30 c 1
 30 30 l 1x58
 30 24 l 1
 10 24 l 1
 11 14 18 6 29 6 c 0
 34 6 39 7 44 11 c 1
 48 7 l 1
 42 2 36 0 29 0 c 0
 15 0 4 11 4 25 c 0xa8
EndSplineSet
EndChar

StartChar: uni0405
Encoding: 1029 1029 27
Width: 30
GlyphClass: 2
Flags: MW
HStem: 0 21G<10.5 19.5> 30 20G<10.5 19.5>
VStem: 2 26<9.5 13 37 40.5 9.5 40.5>
LayerCount: 2
Fore
SplineSet
22 37 m 1
 22 42 19 44 15 44 c 0
 11 44 8 42 8 37 c 0
 8 28 28 29 28 13 c 0
 28 6 24 0 15 0 c 0
 6 0 2 6 2 13 c 1
 8 13 l 1
 8 8 11 6 15 6 c 0
 19 6 22 8 22 13 c 0
 22 26 2 24 2 37 c 0
 2 44 6 50 15 50 c 0
 24 50 28 44 28 37 c 1
 22 37 l 1
EndSplineSet
EndChar

StartChar: uni0406
Encoding: 1030 1030 28
Width: 14
GlyphClass: 2
Flags: MW
HStem: 0 21G<4 10 4 4> 30 20G<4 10 10 10>
VStem: 4 6<0 50 0 50>
LayerCount: 2
Fore
SplineSet
4 50 m 1
 10 50 l 1
 10 0 l 1
 4 0 l 1
 4 50 l 1
EndSplineSet
EndChar

StartChar: uni0407
Encoding: 1031 1031 29
Width: 14
GlyphClass: 2
Flags: MW
HStem: 0 21G<4 10 4 4> 30 20G<4 10 10 10> 54 8<0 2 12 14>
VStem: -3 13<0 59> 4 13<0 59 50 59>
LayerCount: 2
Fore
SplineSet
4 50 m 1xe8
 10 50 l 1
 10 0 l 1xf0
 4 0 l 1
 4 50 l 1xe8
-3 58 m 0
 -3 60 -1 62 1 62 c 0
 3 62 5 60 5 58 c 0
 5 56 3 54 1 54 c 0
 -1 54 -3 56 -3 58 c 0
9 58 m 0
 9 60 11 62 13 62 c 0
 15 62 17 60 17 58 c 0xe8
 17 56 15 54 13 54 c 0
 11 54 9 56 9 58 c 0
EndSplineSet
EndChar

StartChar: uni0408
Encoding: 1032 1032 30
Width: 30
GlyphClass: 2
Flags: MW
HStem: 0 13<2 19.5> 30 20G<22 28 28 28>
VStem: 2 26<9.5 13>
LayerCount: 2
Fore
SplineSet
2 13 m 1
 8 13 l 1
 8 8 11 6 15 6 c 0
 19 6 22 8 22 13 c 2
 22 50 l 1
 28 50 l 1
 28 13 l 2
 28 6 24 0 15 0 c 0
 6 0 2 6 2 13 c 1
EndSplineSet
EndChar

StartChar: uni0409
Encoding: 1033 1033 31
Width: 49
GlyphClass: 2
Flags: MW
HStem: 0 36<0 31 0 31 23 31 29 31 29 31> 30 20<23 31 23 29> 37 13<23 29>
VStem: 23 22<13.5 22.5 13.5 37 13.5 37>
LayerCount: 2
Fore
SplineSet
0 0 m 1xb0
 23 50 l 1
 29 50 l 1
 29 36 l 1
 31 36 l 2
 41 36 45 27 45 18 c 0
 45 9 41 0 31 0 c 2
 23 0 l 1
 23 37 l 1
 7 0 l 1
 0 0 l 1xb0
39 18 m 0
 39 24 37 30 31 30 c 2
 29 30 l 1x50
 29 6 l 1
 31 6 l 2
 37 6 39 12 39 18 c 0
EndSplineSet
Ligature2: "'dlig' Discretionary Ligatures lookup 0 subtable" uni041B uni042C
EndChar

StartChar: uni040A
Encoding: 1034 1034 32
Width: 48
GlyphClass: 2
Flags: MW
HStem: 0 36<4 22 4 22 28 30 10 30 10 22> 30 20<4 22 4 10 4 28 4 30>
VStem: 4 24<6 30 36 50 6 50 6 50> 22 22<13.5 22.5 13.5 30 13.5 30 13.5 50>
LayerCount: 2
Fore
SplineSet
22 36 m 1x90
 22 50 l 1x50
 28 50 l 1x60
 28 36 l 1xa0
 30 36 l 2
 40 36 44 27 44 18 c 0
 44 9 40 0 30 0 c 2
 22 0 l 1x90
 22 30 l 1
 10 30 l 1x50
 10 0 l 1
 4 0 l 1xa0
 4 50 l 1
 10 50 l 1x60
 10 36 l 1
 22 36 l 1x90
38 18 m 0
 38 24 36 30 30 30 c 2
 28 30 l 1
 28 6 l 1x60
 30 6 l 2
 36 6 38 12 38 18 c 0
EndSplineSet
Ligature2: "'dlig' Discretionary Ligatures lookup 0 subtable" uni041D uni042C
EndChar

StartChar: uni040B
Encoding: 1035 1035 33
Width: 36
GlyphClass: 2
Flags: MW
HStem: 0 36<10 18 10 18 16 32 16 26> 30 20<16 18 16 16>
VStem: 4 12<44 44> 10 22<0 24 0 44 0 44>
LayerCount: 2
Fore
SplineSet
4 44 m 1xa0
 4 50 l 1
 22 50 l 1x60
 22 44 l 1
 16 44 l 1
 16 36 l 1xa0
 18 36 l 2
 28 36 32 31 32 24 c 2
 32 0 l 1
 26 0 l 1x90
 26 24 l 2
 26 28 24 30 18 30 c 2
 16 30 l 1x60
 16 0 l 1xa0
 10 0 l 1
 10 44 l 1x90
 4 44 l 1xa0
EndSplineSet
EndChar

StartChar: uni040C
Encoding: 1036 1036 34
Width: 36
GlyphClass: 2
Flags: MW
HStem: 0 21G<4 10 4 4 25 32 25 25> 30 20<4 10>
VStem: 4 11<35 35 35 50>
LayerCount: 2
Fore
SplineSet
4 50 m 1
 10 50 l 1
 10 40 l 1
 17 50 l 1
 25 50 l 1
 15 35 l 1
 32 0 l 1
 25 0 l 1
 10 30 l 1
 10 0 l 1
 4 0 l 1
 4 50 l 1
11 54 m 1
 16 61 l 1
 22 58 l 1
 15 54 l 1
 11 54 l 1
EndSplineSet
EndChar

StartChar: uni040E
Encoding: 1038 1038 35
Width: 30
GlyphClass: 2
Flags: MW
HStem: 0 21G<7 13 7 7> 30 20G<2 8 8 8 22 28 28 28>
VStem: 2 26<50 50>
LayerCount: 2
Fore
SplineSet
2 50 m 1
 8 50 l 1
 16 28 l 1
 22 50 l 1
 28 50 l 1
 13 0 l 1
 7 0 l 1
 13 20 l 1
 2 50 l 1
5 58 m 2
 8 62 l 1
 9 61 12 59 15 59 c 0
 18 59 21 61 22 62 c 1
 25 58 l 2
 23 56 20 54 15 54 c 0
 10 54 7 56 5 58 c 2
EndSplineSet
EndChar

StartChar: uni040F
Encoding: 1039 1039 36
Width: 30
GlyphClass: 2
Flags: MW
HStem: -6 12<12 18 12 12> 0 21G<4 12 4 4 18 18 18 26> 30 20G<4 10 10 10 20 26 26 26>
VStem: 4 22<0 50 0 50>
LayerCount: 2
Fore
SplineSet
12 0 m 1x70
 4 0 l 1x70
 4 50 l 1
 10 50 l 1
 10 6 l 1
 20 6 l 1xb0
 20 50 l 1
 26 50 l 1
 26 0 l 1
 18 0 l 1x70
 18 -6 l 1
 12 -6 l 1xb0
 12 0 l 1x70
EndSplineSet
EndChar

StartChar: uni0410
Encoding: 1040 1040 37
Width: 32
GlyphClass: 2
Flags: MW
HStem: 0 20<0 22 0 22 15 22 15 28> 14 36<21 22 13 28> 37 13<22 22>
VStem: 21 7<0 50>
AnchorPoint: "+BBEENQQ3BEsEPARPBD0EPQQ+BDUA--0" 24 50 basechar 0
LayerCount: 2
Fore
SplineSet
22 37 m 1xb0
 15 20 l 1
 22 20 l 1
 22 37 l 1xb0
0 0 m 1
 21 50 l 1
 28 50 l 1x50
 28 0 l 1
 22 0 l 1xb0
 22 14 l 1
 13 14 l 1x50
 7 0 l 1
 0 0 l 1
EndSplineSet
EndChar

StartChar: uni0411
Encoding: 1041 1041 38
Width: 30
GlyphClass: 2
Flags: MW
HStem: 0 34<4 12 10 12 10 12> 28 22<10 12 10 10>
VStem: 4 22<13.5 20.5 44 50>
AnchorPoint: "+BBEENQQ3BEsEPARPBD0EPQQ+BDUA--0" 16 50 basechar 0
LayerCount: 2
Fore
SplineSet
4 0 m 1xa0
 4 50 l 1
 26 50 l 1x60
 26 44 l 1
 10 44 l 1
 10 34 l 1
 12 34 l 2
 22 34 26 24 26 17 c 0
 26 10 22 0 12 0 c 2
 4 0 l 1xa0
20 17 m 0
 20 21 18 28 12 28 c 2
 10 28 l 1
 10 6 l 1
 12 6 l 2
 18 6 20 13 20 17 c 0
EndSplineSet
EndChar

StartChar: uni0412
Encoding: 1042 1042 39
Width: 30
GlyphClass: 2
Flags: MW
HStem: 0 32<10 12 10 12 4 12> 26 24<10 12 10 10> 30 20G<4 12 12 16.5>
VStem: 4 22<12.5 18 12.5 50>
AnchorPoint: "+BBEENQQ3BEsEPARPBD0EPQQ+BDUA--0" 14 50 basechar 0
LayerCount: 2
Fore
SplineSet
12 0 m 2xb0
 4 0 l 1xb0
 4 50 l 1
 12 50 l 2
 21 50 25 45 25 38 c 0
 25 34 24 31 20 29 c 1x50
 25 26 26 20 26 16 c 0
 26 9 22 0 12 0 c 2xb0
20 16 m 0
 20 20 18 26 12 26 c 2
 10 26 l 1x50
 10 6 l 1
 12 6 l 2
 18 6 20 12 20 16 c 0
19 38 m 0
 19 42 17 44 12 44 c 2
 10 44 l 1
 10 32 l 1
 12 32 l 2xb0
 17 32 19 34 19 38 c 0
EndSplineSet
EndChar

StartChar: uni0413
Encoding: 1043 1043 40
Width: 26
GlyphClass: 2
Flags: MW
HStem: 0 21G<4 4 4 10> 30 20G<4 22 22 22>
VStem: 4 18<44 50 44 50 44 50>
AnchorPoint: "+BBEENQQ3BEsEPARPBD0EPQQ+BDUA--0" 13 50 basechar 0
LayerCount: 2
Fore
SplineSet
4 0 m 1
 4 50 l 1
 22 50 l 1
 22 44 l 1
 10 44 l 1
 10 0 l 1
 4 0 l 1
EndSplineSet
EndChar

StartChar: uni0414
Encoding: 1044 1044 41
Width: 44
GlyphClass: 2
Flags: MW
HStem: -6 12<36 40> 0 21G<10 34 10 10> 37 13<30 36>
VStem: 4 32<-7 50 6 50> 30 10<-6 37>
AnchorPoint: "+BBEENQQ3BEsEPARPBD0EPQQ+BDUA--0" 33 50 basechar 0
LayerCount: 2
Fore
SplineSet
10 6 m 1xb0
 30 50 l 1xa8
 36 50 l 1
 36 6 l 1xb0
 40 6 l 1
 40 -6 l 1
 34 -6 l 1xa8
 34 0 l 1
 10 0 l 1x70
 10 -7 l 1
 4 -7 l 1
 4 6 l 1
 10 6 l 1xb0
30 37 m 1
 16 6 l 1
 30 6 l 1
 30 37 l 1
EndSplineSet
EndChar

StartChar: uni0415
Encoding: 1045 1045 42
Width: 30
GlyphClass: 2
Flags: MW
HStem: 0 36<10 18 10 26 4 18> 30 20<10 18 10 10>
VStem: 4 14<30 36 30 50>
AnchorPoint: "+BBEENQQ3BEsEPARPBD0EPQQ+BDUA--0" 15 50 basechar 0
LayerCount: 2
Fore
SplineSet
26 0 m 1xa0
 4 0 l 1xa0
 4 50 l 1
 26 50 l 1x60
 26 44 l 1
 10 44 l 1
 10 36 l 1
 18 36 l 1xa0
 18 30 l 1
 10 30 l 1x60
 10 6 l 1
 26 6 l 1
 26 0 l 1xa0
EndSplineSet
EndChar

StartChar: uni0416
Encoding: 1046 1046 43
Width: 54
GlyphClass: 2
Flags: MW
HStem: 0 21G<2 9 2 2 24 30 24 24 45 52 45 45> 30 20<9 24 9 30>
VStem: 19 11<0 35> 24 11<0 35 30 35 35 50>
AnchorPoint: "+BBEENQQ3BEsEPARPBD0EPQQ+BDUA--0" 27 50 basechar 0
LayerCount: 2
Fore
SplineSet
24 50 m 1xd0
 30 50 l 1
 30 40 l 1xe0
 37 50 l 1
 45 50 l 1
 35 35 l 1xd0
 52 0 l 1
 45 0 l 1
 30 30 l 1
 30 0 l 1xe0
 24 0 l 1
 24 30 l 1xd0
 9 0 l 1
 2 0 l 1
 19 35 l 1xe0
 9 50 l 1
 17 50 l 1
 24 40 l 1
 24 50 l 1xd0
EndSplineSet
EndChar

StartChar: uni0417
Encoding: 1047 1047 44
Width: 38
GlyphClass: 2
Flags: MW
HStem: 0 32 26 24 30 20G<15 19 19 21>
VStem: 12 18
AnchorPoint: "+BBEENQQ3BEsEPARPBD0EPQQ+BDUA--0" 18 50 basechar 0
LayerCount: 2
Fore
SplineSet
7 11 m 1xb0
 10 8 13 6 18 6 c 0
 24 6 28 10 28 15 c 0
 28 20 24 24 19 24 c 2
 15 24 l 1
 15 30 l 1
 19 30 l 2
 23 30 26 33 26 37 c 0
 26 41 23 44 18 44 c 0
 14 44 10 42 8 39 c 1
 4 44 l 1
 7 47 10 50 18 50 c 0x50
 26 50 32 44 32 37 c 0
 32 33 30 30 27 27 c 1
 31 24 34 20 34 15 c 0
 34 7 27 0 18 0 c 0
 10 0 7 3 3 6 c 1
 7 11 l 1xb0
EndSplineSet
EndChar

StartChar: uni0418
Encoding: 1048 1048 45
Width: 32
GlyphClass: 2
Flags: MW
HStem: 0 16<4 10 4 10 10 28 10 22> 32 18<4 22>
VStem: 4 24<0 50 0 50>
AnchorPoint: "+BBEENQQ3BEsEPARPBD0EPQQ+BDUA--0" 16 50 basechar 0
LayerCount: 2
Fore
SplineSet
10 16 m 1
 22 50 l 1
 28 50 l 1
 28 0 l 1
 22 0 l 1
 22 32 l 1
 10 0 l 1
 4 0 l 1
 4 50 l 1
 10 50 l 1
 10 16 l 1
EndSplineSet
EndChar

StartChar: uni0419
Encoding: 1049 1049 46
Width: 32
GlyphClass: 2
Flags: MW
HStem: 0 16<4 10 4 10 10 28 10 22> 32 18<4 22> 54 8<9 18.5>
VStem: 4 24<0 50 0 50>
LayerCount: 2
Fore
SplineSet
10 16 m 1
 22 50 l 1
 28 50 l 1
 28 0 l 1
 22 0 l 1
 22 32 l 1
 10 0 l 1
 4 0 l 1
 4 50 l 1
 10 50 l 1
 10 16 l 1
6 58 m 2
 9 62 l 1
 10 61 13 59 16 59 c 0
 19 59 22 61 23 62 c 1
 26 58 l 2
 24 56 21 54 16 54 c 0
 11 54 8 56 6 58 c 2
EndSplineSet
EndChar

StartChar: uni041A
Encoding: 1050 1050 47
Width: 36
GlyphClass: 2
Flags: MW
HStem: 0 21G<4 10 4 4 25 32 25 25> 30 20<4 10>
VStem: 4 11<35 35 35 50>
AnchorPoint: "+BBEENQQ3BEsEPARPBD0EPQQ+BDUA--0" 15 50 basechar 0
LayerCount: 2
Fore
SplineSet
4 50 m 1
 10 50 l 1
 10 40 l 1
 17 50 l 1
 25 50 l 1
 15 35 l 1
 32 0 l 1
 25 0 l 1
 10 30 l 1
 10 0 l 1
 4 0 l 1
 4 50 l 1
EndSplineSet
EndChar

StartChar: uni041B
Encoding: 1051 1051 48
Width: 32
GlyphClass: 2
Flags: MW
HStem: 0 21G<0 0 0 7 23 23 23 29> 37 13<23 29>
VStem: 0 29<0 50>
AnchorPoint: "+BBEENQQ3BEsEPARPBD0EPQQ+BDUA--0" 26 50 basechar 0
LayerCount: 2
Fore
SplineSet
0 0 m 1
 23 50 l 1
 29 50 l 1
 29 0 l 1
 23 0 l 1
 23 37 l 1
 7 0 l 1
 0 0 l 1
EndSplineSet
EndChar

StartChar: uni041C
Encoding: 1052 1052 49
Width: 48
GlyphClass: 2
Flags: MW
HStem: 0 21G<0 6 0 0 38 44 38 38> 40 10<25 25 23 31>
VStem: 30 14<29 29>
AnchorPoint: "+BBEENQQ3BEsEPARPBD0EPQQ+BDUA--0" 32 50 basechar 0
LayerCount: 2
Fore
SplineSet
23 50 m 1
 26 50 l 1
 31 40 l 1
 38 50 l 1
 44 50 l 1
 44 0 l 1
 38 0 l 1
 38 40 l 1
 30 29 l 1
 25 40 l 1
 6 0 l 1
 0 0 l 1
 23 50 l 1
EndSplineSet
EndChar

StartChar: uni041D
Encoding: 1053 1053 50
Width: 32
GlyphClass: 2
Flags: MW
HStem: 0 36<4 22 4 22 10 28 10 22> 30 20<4 22 4 10>
VStem: 4 24<0 50 0 50>
AnchorPoint: "+BBEENQQ3BEsEPARPBD0EPQQ+BDUA--0" 16 50 basechar 0
LayerCount: 2
Fore
SplineSet
22 36 m 1xa0
 22 50 l 1
 28 50 l 1x60
 28 0 l 1
 22 0 l 1xa0
 22 30 l 1
 10 30 l 1x60
 10 0 l 1
 4 0 l 1xa0
 4 50 l 1
 10 50 l 1x60
 10 36 l 1
 22 36 l 1xa0
EndSplineSet
EndChar

StartChar: uni041E
Encoding: 1054 1054 51
Width: 58
GlyphClass: 2
Flags: MW
HStem: 0 21G<22 36> 30 20G<22 36>
VStem: 4 50<18 32>
AnchorPoint: "+BBEENQQ3BEsEPARPBD0EPQQ+BDUA--0" 29 50 basechar 0
LayerCount: 2
Fore
SplineSet
4 25 m 0
 4 39 15 50 29 50 c 0
 43 50 54 39 54 25 c 0
 54 11 43 0 29 0 c 0
 15 0 4 11 4 25 c 0
10 25 m 0
 10 15 18 6 29 6 c 0
 40 6 48 15 48 25 c 0
 48 35 40 44 29 44 c 0
 18 44 10 35 10 25 c 0
EndSplineSet
EndChar

StartChar: uni041F
Encoding: 1055 1055 52
Width: 30
GlyphClass: 2
Flags: MW
HStem: 0 21G<4 10 4 4 20 26 20 20> 30 20G<4 26 26 26>
VStem: 4 22<0 50 0 50>
AnchorPoint: "+BBEENQQ3BEsEPARPBD0EPQQ+BDUA--0" 15 50 basechar 0
LayerCount: 2
Fore
SplineSet
4 50 m 1
 26 50 l 1
 26 0 l 1
 20 0 l 1
 20 44 l 1
 10 44 l 1
 10 0 l 1
 4 0 l 1
 4 50 l 1
EndSplineSet
EndChar

StartChar: uni0420
Encoding: 1056 1056 53
Width: 30
GlyphClass: 2
Flags: MW
HStem: 0 21G<4 10 4 4> 0 32<4 12 4 12> 26 24<10 12 10 10>
VStem: 4 22<34.5 41.5 34.5 50 34.5 50>
AnchorPoint: "+BBEENQQ3BEsEPARPBD0EPQQ+BDUA--0" 14 50 basechar 0
LayerCount: 2
Fore
SplineSet
20 38 m 0x50
 20 42 18 44 12 44 c 2
 10 44 l 1
 10 32 l 1
 12 32 l 2
 18 32 20 34 20 38 c 0x50
10 0 m 1
 4 0 l 1x50
 4 50 l 1
 12 50 l 2
 22 50 26 45 26 38 c 0
 26 31 22 26 12 26 c 2
 10 26 l 1xb0
 10 0 l 1
EndSplineSet
EndChar

StartChar: uni0421
Encoding: 1057 1057 54
Width: 52
GlyphClass: 2
Flags: MW
HStem: 0 7 43 7
VStem: 4 44<7 32>
AnchorPoint: "+BBEENQQ3BEsEPARPBD0EPQQ+BDUA--0" 29 50 basechar 0
LayerCount: 2
Fore
SplineSet
4 25 m 0
 4 39 15 50 29 50 c 0
 36 50 42 48 48 43 c 1
 44 39 l 1
 39 43 34 44 29 44 c 0
 18 44 10 35 10 25 c 0
 10 15 18 6 29 6 c 0
 34 6 39 7 44 11 c 1
 48 7 l 1
 42 2 36 0 29 0 c 0
 15 0 4 11 4 25 c 0
EndSplineSet
EndChar

StartChar: uni0422
Encoding: 1058 1058 55
Width: 26
GlyphClass: 2
Flags: MW
HStem: 0 21G<10 16 10 10> 30 20G<4 22 22 22>
VStem: 4 12<0 50 0 50> 10 12<0 50 44 50>
AnchorPoint: "+BBEENQQ3BEsEPARPBD0EPQQ+BDUA--0" 13 50 basechar 0
LayerCount: 2
Fore
SplineSet
4 44 m 1xe0
 4 50 l 1xe0
 22 50 l 1
 22 44 l 1xd0
 16 44 l 1
 16 0 l 1xe0
 10 0 l 1
 10 44 l 1xd0
 4 44 l 1xe0
EndSplineSet
EndChar

StartChar: uni0423
Encoding: 1059 1059 56
Width: 30
GlyphClass: 2
Flags: MW
HStem: 0 21G<7 13 7 7> 30 20G<2 8 8 8 22 28 28 28>
VStem: 2 26<50 50>
AnchorPoint: "+BBEENQQ3BEsEPARPBD0EPQQ+BDUA--0" 15 50 basechar 0
LayerCount: 2
Fore
SplineSet
2 50 m 1
 8 50 l 1
 16 28 l 1
 22 50 l 1
 28 50 l 1
 13 0 l 1
 7 0 l 1
 13 20 l 1
 2 50 l 1
EndSplineSet
EndChar

StartChar: uni0424
Encoding: 1060 1060 57
Width: 46
GlyphClass: 2
Flags: MW
HStem: 0 32<18 26 18 20> 26 24<13 20 18 20 18 26 26 28> 44 12<15 26 18 26 20 26 20 28>
VStem: 4 22<34.5 41.5> 20 22<0 41.5 26 41.5 34.5 41.5 34.5 44 34.5 44 34.5 56 34.5 56>
AnchorPoint: "+BBEENQQ3BEsEPARPBD0EPQQ+BDUA--0" 23 56 basechar 0
LayerCount: 2
Fore
SplineSet
26 0 m 1xb0
 20 0 l 1xa8
 20 26 l 1x48
 18 26 l 2
 8 26 4 31 4 38 c 0x50
 4 45 8 50 18 50 c 2
 20 50 l 1x48
 20 56 l 1xa8
 26 56 l 1xb0
 26 50 l 1x50
 28 50 l 2
 38 50 42 45 42 38 c 0x48
 42 31 38 26 28 26 c 2
 26 26 l 1x50
 26 0 l 1xb0
10 38 m 0
 10 34 12 32 18 32 c 2
 20 32 l 1
 20 44 l 1
 18 44 l 2
 12 44 10 42 10 38 c 0
36 38 m 0
 36 42 34 44 28 44 c 2
 26 44 l 1
 26 32 l 1xb0
 28 32 l 2
 34 32 36 34 36 38 c 0
EndSplineSet
EndChar

StartChar: uni0425
Encoding: 1061 1061 58
Width: 30
GlyphClass: 2
Flags: MW
HStem: 0 21G<2 15 2 15 15 28 15 22> 0 31<2 15 2 15 15 28 15 22> 21 29<2 15> 30 20G<2 8 8 8 22 28 28 28>
VStem: 2 26<0 0>
AnchorPoint: "+BBEENQQ3BEsEPARPBD0EPQQ+BDUA--0" 15 50 basechar 0
LayerCount: 2
Fore
SplineSet
2 50 m 1xa8
 8 50 l 1xa8
 15 31 l 1x58
 22 50 l 1
 28 50 l 1xa8
 19 26 l 1
 28 0 l 1
 22 0 l 1x58
 15 21 l 1xa8
 8 0 l 1
 2 0 l 1x58
 11 26 l 1
 2 50 l 1xa8
EndSplineSet
EndChar

StartChar: uni0426
Encoding: 1062 1062 59
Width: 34
GlyphClass: 2
Flags: MW
HStem: -6 12<26 30 10 30 10 24> 0 21G<4 24 4 4> 30 20G<4 10 10 10 20 26 26 26>
VStem: 4 22<6 50 6 50 6 50> 20 10<-6 50>
AnchorPoint: "+BBEENQQ3BEsEPARPBD0EPQQ+BDUA--0" 15 50 basechar 0
LayerCount: 2
Fore
SplineSet
24 0 m 1x70
 4 0 l 1
 4 50 l 1x70
 10 50 l 1
 10 6 l 1
 20 6 l 1
 20 50 l 1xa8
 26 50 l 1
 26 6 l 1xb0
 30 6 l 1
 30 -6 l 1
 24 -6 l 1xa8
 24 0 l 1x70
EndSplineSet
EndChar

StartChar: uni0427
Encoding: 1063 1063 60
Width: 30
GlyphClass: 2
Flags: MW
HStem: 0 21G<20 26 20 20> 0 32<18 26 18 20> 26 24<4 18 4 20>
VStem: 4 22<38 50 0 50>
AnchorPoint: "+BBEENQQ3BEsEPARPBD0EPQQ+BDUA--0" 15 50 basechar 0
LayerCount: 2
Fore
SplineSet
10 38 m 2xb0
 10 34 12 32 18 32 c 2
 20 32 l 1x50
 20 50 l 1
 26 50 l 1xb0
 26 0 l 1
 20 0 l 1x50
 20 26 l 1
 18 26 l 2
 8 26 4 31 4 38 c 2
 4 50 l 1
 10 50 l 1
 10 38 l 2xb0
EndSplineSet
EndChar

StartChar: uni0428
Encoding: 1064 1064 61
Width: 42
GlyphClass: 2
Flags: MW
HStem: 0 21G<4 38 4 4> 30 20G<4 10 10 10 18 24 24 24 32 38 38 38>
VStem: 4 20<6 50 6 50 6 50> 18 20<6 50>
AnchorPoint: "+BBEENQQ3BEsEPARPBD0EPQQ+BDUA--0" 21 50 basechar 0
LayerCount: 2
Fore
SplineSet
38 0 m 1xd0
 4 0 l 1
 4 50 l 1xe0
 10 50 l 1
 10 6 l 1
 18 6 l 1
 18 50 l 1xd0
 24 50 l 1
 24 6 l 1xe0
 32 6 l 1
 32 50 l 1
 38 50 l 1
 38 0 l 1xd0
EndSplineSet
EndChar

StartChar: uni0429
Encoding: 1065 1065 62
Width: 46
GlyphClass: 2
Flags: MW
HStem: -6 12<38 42> 0 21G<4 36 4 4> 30 20G<4 10 10 10 18 24 24 24 32 38 38 38>
VStem: 4 20<6 50 6 50 6 50> 18 20<6 50 6 50> 32 10<-6 50>
AnchorPoint: "+BBEENQQ3BEsEPARPBD0EPQQ+BDUA--0" 21 50 basechar 0
LayerCount: 2
Fore
SplineSet
36 0 m 1x74
 4 0 l 1
 4 50 l 1x74
 10 50 l 1
 10 6 l 1
 18 6 l 1
 18 50 l 1xa8
 24 50 l 1
 24 6 l 1
 32 6 l 1
 32 50 l 1xb4
 38 50 l 1
 38 6 l 1xa8
 42 6 l 1
 42 -6 l 1
 36 -6 l 1xb4
 36 0 l 1x74
EndSplineSet
EndChar

StartChar: uni042A
Encoding: 1066 1066 63
Width: 36
GlyphClass: 2
Flags: MW
HStem: 0 36<16 18 16 18 10 18> 30 20<4 18 4 16>
VStem: 4 12<44 50> 10 22<13.5 22.5 13.5 44 13.5 44>
AnchorPoint: "+BBEENQQ3BEsEPARPBD0EPQQ+BDUA--0" 21 50 basechar 0
LayerCount: 2
Fore
SplineSet
4 44 m 1xa0
 4 50 l 1
 16 50 l 1x60
 16 36 l 1xa0
 18 36 l 2
 28 36 32 27 32 18 c 0
 32 9 28 0 18 0 c 2
 10 0 l 1
 10 44 l 1x90
 4 44 l 1xa0
26 18 m 0
 26 24 24 30 18 30 c 2
 16 30 l 1
 16 6 l 1
 18 6 l 2
 24 6 26 12 26 18 c 0
EndSplineSet
EndChar

StartChar: uni042B
Encoding: 1067 1067 64
Width: 40
GlyphClass: 2
Flags: MW
HStem: 0 36<4 12 10 12 10 12 10 36 10 30> 30 20<4 12 4 10>
VStem: 4 32<0 50 0 50>
AnchorPoint: "+BBEENQQ3BEsEPARPBD0EPQQ+BDUA--0" 20 50 basechar 0
LayerCount: 2
Fore
SplineSet
20 18 m 0x60
 20 24 18 30 12 30 c 2
 10 30 l 1
 10 6 l 1
 12 6 l 2
 18 6 20 12 20 18 c 0x60
4 0 m 1xa0
 4 50 l 1
 10 50 l 1x60
 10 36 l 1
 12 36 l 2
 22 36 26 27 26 18 c 0
 26 9 22 0 12 0 c 2
 4 0 l 1xa0
30 0 m 1xa0
 30 50 l 1
 36 50 l 1x60
 36 0 l 1
 30 0 l 1xa0
EndSplineSet
EndChar

StartChar: uni042C
Encoding: 1068 1068 65
Width: 30
GlyphClass: 2
Flags: MW
HStem: 0 36<4 12 10 12 10 12> 30 20<4 12 4 10>
VStem: 4 22<13.5 22.5 13.5 50>
AnchorPoint: "+BBEENQQ3BEsEPARPBD0EPQQ+BDUA--0" 15 50 basechar 0
LayerCount: 2
Fore
SplineSet
20 18 m 0x60
 20 24 18 30 12 30 c 2
 10 30 l 1
 10 6 l 1
 12 6 l 2
 18 6 20 12 20 18 c 0x60
4 0 m 1xa0
 4 50 l 1
 10 50 l 1x60
 10 36 l 1
 12 36 l 2
 22 36 26 27 26 18 c 0
 26 9 22 0 12 0 c 2
 4 0 l 1xa0
EndSplineSet
EndChar

StartChar: uni042D
Encoding: 1069 1069 66
Width: 52
GlyphClass: 2
Flags: MW
HStem: 0 30<22 30> 24 26<22 30 19.5 42 22 22> 43 7
VStem: 41 7<30 30>
AnchorPoint: "+BBEENQQ3BEsEPARPBD0EPQQ+BDUA--0" 23 50 basechar 0
LayerCount: 2
Fore
SplineSet
48 25 m 0x50
 48 11 37 0 23 0 c 0xb0
 16 0 10 2 4 7 c 1
 8 11 l 1
 13 7 18 6 23 6 c 0
 34 6 41 14 42 24 c 1
 22 24 l 1x50
 22 30 l 1
 41 30 l 1
 39 38 32 44 23 44 c 0
 18 44 13 43 8 39 c 1
 4 43 l 1xb0
 10 48 16 50 23 50 c 0
 37 50 48 39 48 25 c 0x50
EndSplineSet
EndChar

StartChar: uni042E
Encoding: 1070 1070 67
Width: 70
GlyphClass: 2
Flags: MW
HStem: 0 28<4 16 4 16 10 48> 22 28<4 16 4 10>
VStem: 4 18<20 30 20 50>
AnchorPoint: "+BBEENQQ3BEsEPARPBD0EPQQ+BDUA--0" 41 50 basechar 0
LayerCount: 2
Fore
SplineSet
10 50 m 1x60
 10 28 l 1
 16 28 l 1xa0
 18 41 28 50 41 50 c 0x60
 55 50 66 39 66 25 c 0
 66 11 55 0 41 0 c 0xa0
 28 0 18 9 16 22 c 1
 10 22 l 1x60
 10 0 l 1
 4 0 l 1xa0
 4 50 l 1
 10 50 l 1x60
22 25 m 0
 22 15 30 6 41 6 c 0
 52 6 60 15 60 25 c 0
 60 35 52 44 41 44 c 0
 30 44 22 35 22 25 c 0
EndSplineSet
EndChar

StartChar: uni042F
Encoding: 1071 1071 68
Width: 30
GlyphClass: 2
Flags: MW
HStem: 0 32<4 20 4 20 18 26 18 20> 26 24<12 26 18 20 18 26>
VStem: 4 22<0 50 35.5 41.5>
AnchorPoint: "+BBEENQQ3BEsEPARPBD0EPQQ+BDUA--0" 16 50 basechar 0
LayerCount: 2
Fore
SplineSet
26 50 m 1x60
 26 0 l 1
 20 0 l 1xa0
 20 26 l 1
 18 26 l 1x60
 10 0 l 1
 4 0 l 1xa0
 12 26 l 1
 6 29 4 33 4 38 c 0
 4 45 8 50 18 50 c 2
 26 50 l 1x60
10 38 m 0
 10 34 12 32 18 32 c 2
 20 32 l 1
 20 44 l 1
 18 44 l 2
 12 44 10 42 10 38 c 0
EndSplineSet
EndChar

StartChar: uni0430
Encoding: 1072 1072 69
Width: 32
GlyphClass: 2
Flags: MW
HStem: 0 20<0 22 0 22 15 22 15 28> 14 36<21 22 13 28> 37 13<22 22>
VStem: 21 7<0 50>
AnchorPoint: "+BBEENQQ3BEsEPARPBD0EPQQ+BDUA--0" 24 50 basechar 0
LayerCount: 2
Fore
SplineSet
22 37 m 1xb0
 15 20 l 1
 22 20 l 1
 22 37 l 1xb0
0 0 m 1
 21 50 l 1
 28 50 l 1x50
 28 0 l 1
 22 0 l 1xb0
 22 14 l 1
 13 14 l 1x50
 7 0 l 1
 0 0 l 1
EndSplineSet
EndChar

StartChar: uni0431
Encoding: 1073 1073 70
Width: 30
GlyphClass: 2
Flags: MW
HStem: 0 34<4 12 10 12 10 12> 28 22<10 12 10 10>
VStem: 4 22<13.5 20.5 44 50>
AnchorPoint: "+BBEENQQ3BEsEPARPBD0EPQQ+BDUA--0" 16 50 basechar 0
LayerCount: 2
Fore
SplineSet
4 0 m 1xa0
 4 50 l 1
 26 50 l 1x60
 26 44 l 1
 10 44 l 1
 10 34 l 1
 12 34 l 2
 22 34 26 24 26 17 c 0
 26 10 22 0 12 0 c 2
 4 0 l 1xa0
20 17 m 0
 20 21 18 28 12 28 c 2
 10 28 l 1
 10 6 l 1
 12 6 l 2
 18 6 20 13 20 17 c 0
EndSplineSet
EndChar

StartChar: uni0432
Encoding: 1074 1074 71
Width: 30
GlyphClass: 2
Flags: MW
HStem: 0 32<10 12 10 12 4 12> 26 24<10 12 10 10> 30 20G<4 12 12 16.5>
VStem: 4 22<12.5 18 12.5 50>
AnchorPoint: "+BBEENQQ3BEsEPARPBD0EPQQ+BDUA--0" 14 50 basechar 0
LayerCount: 2
Fore
SplineSet
12 0 m 2xb0
 4 0 l 1xb0
 4 50 l 1
 12 50 l 2
 21 50 25 45 25 38 c 0
 25 34 24 31 20 29 c 1x50
 25 26 26 20 26 16 c 0
 26 9 22 0 12 0 c 2xb0
20 16 m 0
 20 20 18 26 12 26 c 2
 10 26 l 1x50
 10 6 l 1
 12 6 l 2
 18 6 20 12 20 16 c 0
19 38 m 0
 19 42 17 44 12 44 c 2
 10 44 l 1
 10 32 l 1
 12 32 l 2xb0
 17 32 19 34 19 38 c 0
EndSplineSet
EndChar

StartChar: uni0433
Encoding: 1075 1075 72
Width: 26
GlyphClass: 2
Flags: MW
HStem: 0 21G<4 4 4 10> 30 20G<4 22 22 22>
VStem: 4 18<44 50 44 50 44 50>
AnchorPoint: "+BBEENQQ3BEsEPARPBD0EPQQ+BDUA--0" 13 50 basechar 0
LayerCount: 2
Fore
SplineSet
4 0 m 1
 4 50 l 1
 22 50 l 1
 22 44 l 1
 10 44 l 1
 10 0 l 1
 4 0 l 1
EndSplineSet
EndChar

StartChar: uni0434
Encoding: 1076 1076 73
Width: 44
GlyphClass: 2
Flags: MW
HStem: -6 12<36 40> 0 21G<10 34 10 10> 37 13<30 36>
VStem: 4 32<-7 50 6 50> 30 10<-6 37>
AnchorPoint: "+BBEENQQ3BEsEPARPBD0EPQQ+BDUA--0" 33 50 basechar 0
LayerCount: 2
Fore
SplineSet
10 6 m 1xb0
 30 50 l 1xa8
 36 50 l 1
 36 6 l 1xb0
 40 6 l 1
 40 -6 l 1
 34 -6 l 1xa8
 34 0 l 1
 10 0 l 1x70
 10 -7 l 1
 4 -7 l 1
 4 6 l 1
 10 6 l 1xb0
30 37 m 1
 16 6 l 1
 30 6 l 1
 30 37 l 1
EndSplineSet
EndChar

StartChar: uni0435
Encoding: 1077 1077 74
Width: 30
GlyphClass: 2
Flags: MW
HStem: 0 36<10 18 10 26 4 18> 30 20<10 18 10 10>
VStem: 4 14<30 36 30 50>
AnchorPoint: "+BBEENQQ3BEsEPARPBD0EPQQ+BDUA--0" 15 50 basechar 0
LayerCount: 2
Fore
SplineSet
26 0 m 1xa0
 4 0 l 1xa0
 4 50 l 1
 26 50 l 1x60
 26 44 l 1
 10 44 l 1
 10 36 l 1
 18 36 l 1xa0
 18 30 l 1
 10 30 l 1x60
 10 6 l 1
 26 6 l 1
 26 0 l 1xa0
EndSplineSet
EndChar

StartChar: uni0436
Encoding: 1078 1078 75
Width: 54
GlyphClass: 2
Flags: MW
HStem: 0 21G<2 9 2 2 24 30 24 24 45 52 45 45> 30 20<9 24 9 30>
VStem: 19 11<0 35> 24 11<0 35 30 35 35 50>
AnchorPoint: "+BBEENQQ3BEsEPARPBD0EPQQ+BDUA--0" 27 50 basechar 0
LayerCount: 2
Fore
SplineSet
24 50 m 1xd0
 30 50 l 1
 30 40 l 1xe0
 37 50 l 1
 45 50 l 1
 35 35 l 1xd0
 52 0 l 1
 45 0 l 1
 30 30 l 1
 30 0 l 1xe0
 24 0 l 1
 24 30 l 1xd0
 9 0 l 1
 2 0 l 1
 19 35 l 1xe0
 9 50 l 1
 17 50 l 1
 24 40 l 1
 24 50 l 1xd0
EndSplineSet
EndChar

StartChar: uni0437
Encoding: 1079 1079 76
Width: 38
GlyphClass: 2
Flags: MW
HStem: 0 32 26 24 30 20G<15 19 19 21>
VStem: 12 18
AnchorPoint: "+BBEENQQ3BEsEPARPBD0EPQQ+BDUA--0" 18 50 basechar 0
LayerCount: 2
Fore
SplineSet
7 11 m 1xb0
 10 8 13 6 18 6 c 0
 24 6 28 10 28 15 c 0
 28 20 24 24 19 24 c 2
 15 24 l 1
 15 30 l 1
 19 30 l 2
 23 30 26 33 26 37 c 0
 26 41 23 44 18 44 c 0
 14 44 10 42 8 39 c 1
 4 44 l 1
 7 47 10 50 18 50 c 0x50
 26 50 32 44 32 37 c 0
 32 33 30 30 27 27 c 1
 31 24 34 20 34 15 c 0
 34 7 27 0 18 0 c 0
 10 0 7 3 3 6 c 1
 7 11 l 1xb0
EndSplineSet
EndChar

StartChar: uni0438
Encoding: 1080 1080 77
Width: 32
GlyphClass: 2
Flags: MW
HStem: 0 16<4 10 4 10 10 28 10 22> 32 18<4 22>
VStem: 4 24<0 50 0 50>
AnchorPoint: "+BBEENQQ3BEsEPARPBD0EPQQ+BDUA--0" 16 50 basechar 0
LayerCount: 2
Fore
SplineSet
10 16 m 1
 22 50 l 1
 28 50 l 1
 28 0 l 1
 22 0 l 1
 22 32 l 1
 10 0 l 1
 4 0 l 1
 4 50 l 1
 10 50 l 1
 10 16 l 1
EndSplineSet
EndChar

StartChar: uni0439
Encoding: 1081 1081 78
Width: 32
GlyphClass: 2
Flags: MW
HStem: 0 16<4 10 4 10 10 28 10 22> 32 18<4 22> 54 8<9 18.5>
VStem: 4 24<0 50 0 50>
LayerCount: 2
Fore
SplineSet
10 16 m 1
 22 50 l 1
 28 50 l 1
 28 0 l 1
 22 0 l 1
 22 32 l 1
 10 0 l 1
 4 0 l 1
 4 50 l 1
 10 50 l 1
 10 16 l 1
6 58 m 2
 9 62 l 1
 10 61 13 59 16 59 c 0
 19 59 22 61 23 62 c 1
 26 58 l 2
 24 56 21 54 16 54 c 0
 11 54 8 56 6 58 c 2
EndSplineSet
EndChar

StartChar: uni043A
Encoding: 1082 1082 79
Width: 36
GlyphClass: 2
Flags: MW
HStem: 0 21G<4 10 4 4 25 32 25 25> 30 20<4 10>
VStem: 4 11<35 35 35 50>
AnchorPoint: "+BBEENQQ3BEsEPARPBD0EPQQ+BDUA--0" 15 50 basechar 0
LayerCount: 2
Fore
SplineSet
4 50 m 1
 10 50 l 1
 10 40 l 1
 17 50 l 1
 25 50 l 1
 15 35 l 1
 32 0 l 1
 25 0 l 1
 10 30 l 1
 10 0 l 1
 4 0 l 1
 4 50 l 1
EndSplineSet
EndChar

StartChar: uni043B
Encoding: 1083 1083 80
Width: 32
GlyphClass: 2
Flags: MW
HStem: 0 21G<0 0 0 7 23 23 23 29> 37 13<23 29>
VStem: 0 29<0 50>
AnchorPoint: "+BBEENQQ3BEsEPARPBD0EPQQ+BDUA--0" 26 50 basechar 0
LayerCount: 2
Fore
SplineSet
0 0 m 1
 23 50 l 1
 29 50 l 1
 29 0 l 1
 23 0 l 1
 23 37 l 1
 7 0 l 1
 0 0 l 1
EndSplineSet
EndChar

StartChar: uni043C
Encoding: 1084 1084 81
Width: 48
GlyphClass: 2
Flags: MW
HStem: 0 21G<0 6 0 0 38 44 38 38> 40 10<25 25 23 31>
VStem: 30 14<29 29>
AnchorPoint: "+BBEENQQ3BEsEPARPBD0EPQQ+BDUA--0" 32 50 basechar 0
LayerCount: 2
Fore
SplineSet
23 50 m 1
 26 50 l 1
 31 40 l 1
 38 50 l 1
 44 50 l 1
 44 0 l 1
 38 0 l 1
 38 40 l 1
 30 29 l 1
 25 40 l 1
 6 0 l 1
 0 0 l 1
 23 50 l 1
EndSplineSet
EndChar

StartChar: uni043D
Encoding: 1085 1085 82
Width: 32
GlyphClass: 2
Flags: MW
HStem: 0 36<4 22 4 22 10 28 10 22> 30 20<4 22 4 10>
VStem: 4 24<0 50 0 50>
AnchorPoint: "+BBEENQQ3BEsEPARPBD0EPQQ+BDUA--0" 16 50 basechar 0
LayerCount: 2
Fore
SplineSet
22 36 m 1xa0
 22 50 l 1
 28 50 l 1x60
 28 0 l 1
 22 0 l 1xa0
 22 30 l 1
 10 30 l 1x60
 10 0 l 1
 4 0 l 1xa0
 4 50 l 1
 10 50 l 1x60
 10 36 l 1
 22 36 l 1xa0
EndSplineSet
EndChar

StartChar: uni043E
Encoding: 1086 1086 83
Width: 58
GlyphClass: 2
Flags: MW
HStem: 0 21G<22 36> 30 20G<22 36>
VStem: 4 50<18 32>
AnchorPoint: "+BBEENQQ3BEsEPARPBD0EPQQ+BDUA--0" 29 50 basechar 0
LayerCount: 2
Fore
SplineSet
4 25 m 0
 4 39 15 50 29 50 c 0
 43 50 54 39 54 25 c 0
 54 11 43 0 29 0 c 0
 15 0 4 11 4 25 c 0
10 25 m 0
 10 15 18 6 29 6 c 0
 40 6 48 15 48 25 c 0
 48 35 40 44 29 44 c 0
 18 44 10 35 10 25 c 0
EndSplineSet
EndChar

StartChar: uni043F
Encoding: 1087 1087 84
Width: 30
GlyphClass: 2
Flags: MW
HStem: 0 21G<4 10 4 4 20 26 20 20> 30 20G<4 26 26 26>
VStem: 4 22<0 50 0 50>
AnchorPoint: "+BBEENQQ3BEsEPARPBD0EPQQ+BDUA--0" 15 50 basechar 0
LayerCount: 2
Fore
SplineSet
4 50 m 1
 26 50 l 1
 26 0 l 1
 20 0 l 1
 20 44 l 1
 10 44 l 1
 10 0 l 1
 4 0 l 1
 4 50 l 1
EndSplineSet
EndChar

StartChar: uni0440
Encoding: 1088 1088 85
Width: 30
GlyphClass: 2
Flags: MW
HStem: 0 21G<4 10 4 4> 0 32<4 12 4 12> 26 24<10 12 10 10>
VStem: 4 22<34.5 41.5 34.5 50 34.5 50>
AnchorPoint: "+BBEENQQ3BEsEPARPBD0EPQQ+BDUA--0" 14 50 basechar 0
LayerCount: 2
Fore
SplineSet
20 38 m 0x50
 20 42 18 44 12 44 c 2
 10 44 l 1
 10 32 l 1
 12 32 l 2
 18 32 20 34 20 38 c 0x50
10 0 m 1
 4 0 l 1x50
 4 50 l 1
 12 50 l 2
 22 50 26 45 26 38 c 0
 26 31 22 26 12 26 c 2
 10 26 l 1xb0
 10 0 l 1
EndSplineSet
EndChar

StartChar: uni0441
Encoding: 1089 1089 86
Width: 52
GlyphClass: 2
Flags: MW
HStem: 0 7 43 7
VStem: 4 44<7 32>
AnchorPoint: "+BBEENQQ3BEsEPARPBD0EPQQ+BDUA--0" 29 50 basechar 0
LayerCount: 2
Fore
SplineSet
4 25 m 0
 4 39 15 50 29 50 c 0
 36 50 42 48 48 43 c 1
 44 39 l 1
 39 43 34 44 29 44 c 0
 18 44 10 35 10 25 c 0
 10 15 18 6 29 6 c 0
 34 6 39 7 44 11 c 1
 48 7 l 1
 42 2 36 0 29 0 c 0
 15 0 4 11 4 25 c 0
EndSplineSet
EndChar

StartChar: uni0442
Encoding: 1090 1090 87
Width: 26
GlyphClass: 2
Flags: MW
HStem: 0 21G<10 16 10 10> 30 20G<4 22 22 22>
VStem: 4 12<0 50 0 50> 10 12<0 50 44 50>
AnchorPoint: "+BBEENQQ3BEsEPARPBD0EPQQ+BDUA--0" 13 50 basechar 0
LayerCount: 2
Fore
SplineSet
4 44 m 1xe0
 4 50 l 1xe0
 22 50 l 1
 22 44 l 1xd0
 16 44 l 1
 16 0 l 1xe0
 10 0 l 1
 10 44 l 1xd0
 4 44 l 1xe0
EndSplineSet
EndChar

StartChar: uni0443
Encoding: 1091 1091 88
Width: 30
GlyphClass: 2
Flags: MW
HStem: 0 21G<7 13 7 7> 30 20G<2 8 8 8 22 28 28 28>
VStem: 2 26<50 50>
AnchorPoint: "+BBEENQQ3BEsEPARPBD0EPQQ+BDUA--0" 15 50 basechar 0
LayerCount: 2
Fore
SplineSet
2 50 m 1
 8 50 l 1
 16 28 l 1
 22 50 l 1
 28 50 l 1
 13 0 l 1
 7 0 l 1
 13 20 l 1
 2 50 l 1
EndSplineSet
EndChar

StartChar: uni0444
Encoding: 1092 1092 89
Width: 46
GlyphClass: 2
Flags: MW
HStem: 0 32<18 26 18 20> 26 24<13 20 18 20 18 26 26 28> 44 12<15 26 18 26 20 26 20 28>
VStem: 4 22<34.5 41.5> 20 22<0 41.5 26 41.5 34.5 41.5 34.5 44 34.5 44 34.5 56 34.5 56>
AnchorPoint: "+BBEENQQ3BEsEPARPBD0EPQQ+BDUA--0" 23 56 basechar 0
LayerCount: 2
Fore
SplineSet
26 0 m 1xb0
 20 0 l 1xa8
 20 26 l 1x48
 18 26 l 2
 8 26 4 31 4 38 c 0x50
 4 45 8 50 18 50 c 2
 20 50 l 1x48
 20 56 l 1xa8
 26 56 l 1xb0
 26 50 l 1x50
 28 50 l 2
 38 50 42 45 42 38 c 0x48
 42 31 38 26 28 26 c 2
 26 26 l 1x50
 26 0 l 1xb0
10 38 m 0
 10 34 12 32 18 32 c 2
 20 32 l 1
 20 44 l 1
 18 44 l 2
 12 44 10 42 10 38 c 0
36 38 m 0
 36 42 34 44 28 44 c 2
 26 44 l 1
 26 32 l 1xb0
 28 32 l 2
 34 32 36 34 36 38 c 0
EndSplineSet
EndChar

StartChar: uni0445
Encoding: 1093 1093 90
Width: 30
GlyphClass: 2
Flags: MW
HStem: 0 21G<2 15 2 15 15 28 15 22> 0 31<2 15 2 15 15 28 15 22> 21 29<2 15> 30 20G<2 8 8 8 22 28 28 28>
VStem: 2 26<0 0>
AnchorPoint: "+BBEENQQ3BEsEPARPBD0EPQQ+BDUA--0" 15 50 basechar 0
LayerCount: 2
Fore
SplineSet
2 50 m 1xa8
 8 50 l 1xa8
 15 31 l 1x58
 22 50 l 1
 28 50 l 1xa8
 19 26 l 1
 28 0 l 1
 22 0 l 1x58
 15 21 l 1xa8
 8 0 l 1
 2 0 l 1x58
 11 26 l 1
 2 50 l 1xa8
EndSplineSet
EndChar

StartChar: uni0446
Encoding: 1094 1094 91
Width: 34
GlyphClass: 2
Flags: MW
HStem: -6 12<26 30 10 30 10 24> 0 21G<4 24 4 4> 30 20G<4 10 10 10 20 26 26 26>
VStem: 4 22<6 50 6 50 6 50> 20 10<-6 50>
AnchorPoint: "+BBEENQQ3BEsEPARPBD0EPQQ+BDUA--0" 15 50 basechar 0
LayerCount: 2
Fore
SplineSet
24 0 m 1x70
 4 0 l 1
 4 50 l 1x70
 10 50 l 1
 10 6 l 1
 20 6 l 1
 20 50 l 1xa8
 26 50 l 1
 26 6 l 1xb0
 30 6 l 1
 30 -6 l 1
 24 -6 l 1xa8
 24 0 l 1x70
EndSplineSet
EndChar

StartChar: uni0447
Encoding: 1095 1095 92
Width: 30
GlyphClass: 2
Flags: MW
HStem: 0 21G<20 26 20 20> 0 32<18 26 18 20> 26 24<4 18 4 20>
VStem: 4 22<38 50 0 50>
AnchorPoint: "+BBEENQQ3BEsEPARPBD0EPQQ+BDUA--0" 15 50 basechar 0
LayerCount: 2
Fore
SplineSet
10 38 m 2xb0
 10 34 12 32 18 32 c 2
 20 32 l 1x50
 20 50 l 1
 26 50 l 1xb0
 26 0 l 1
 20 0 l 1x50
 20 26 l 1
 18 26 l 2
 8 26 4 31 4 38 c 2
 4 50 l 1
 10 50 l 1
 10 38 l 2xb0
EndSplineSet
EndChar

StartChar: uni0448
Encoding: 1096 1096 93
Width: 42
GlyphClass: 2
Flags: MW
HStem: 0 21G<4 38 4 4> 30 20G<4 10 10 10 18 24 24 24 32 38 38 38>
VStem: 4 20<6 50 6 50 6 50> 18 20<6 50>
AnchorPoint: "+BBEENQQ3BEsEPARPBD0EPQQ+BDUA--0" 21 50 basechar 0
LayerCount: 2
Fore
SplineSet
38 0 m 1xd0
 4 0 l 1
 4 50 l 1xe0
 10 50 l 1
 10 6 l 1
 18 6 l 1
 18 50 l 1xd0
 24 50 l 1
 24 6 l 1xe0
 32 6 l 1
 32 50 l 1
 38 50 l 1
 38 0 l 1xd0
EndSplineSet
EndChar

StartChar: uni0449
Encoding: 1097 1097 94
Width: 46
GlyphClass: 2
Flags: MW
HStem: -6 12<38 42> 0 21G<4 36 4 4> 30 20G<4 10 10 10 18 24 24 24 32 38 38 38>
VStem: 4 20<6 50 6 50 6 50> 18 20<6 50 6 50> 32 10<-6 50>
AnchorPoint: "+BBEENQQ3BEsEPARPBD0EPQQ+BDUA--0" 21 50 basechar 0
LayerCount: 2
Fore
SplineSet
36 0 m 1x74
 4 0 l 1
 4 50 l 1x74
 10 50 l 1
 10 6 l 1
 18 6 l 1
 18 50 l 1xa8
 24 50 l 1
 24 6 l 1
 32 6 l 1
 32 50 l 1xb4
 38 50 l 1
 38 6 l 1xa8
 42 6 l 1
 42 -6 l 1
 36 -6 l 1xb4
 36 0 l 1x74
EndSplineSet
EndChar

StartChar: uni044A
Encoding: 1098 1098 95
Width: 36
GlyphClass: 2
Flags: MW
HStem: 0 36<16 18 16 18 10 18> 30 20<4 18 4 16>
VStem: 4 12<44 50> 10 22<13.5 22.5 13.5 44 13.5 44>
AnchorPoint: "+BBEENQQ3BEsEPARPBD0EPQQ+BDUA--0" 21 50 basechar 0
LayerCount: 2
Fore
SplineSet
4 44 m 1xa0
 4 50 l 1
 16 50 l 1x60
 16 36 l 1xa0
 18 36 l 2
 28 36 32 27 32 18 c 0
 32 9 28 0 18 0 c 2
 10 0 l 1
 10 44 l 1x90
 4 44 l 1xa0
26 18 m 0
 26 24 24 30 18 30 c 2
 16 30 l 1
 16 6 l 1
 18 6 l 2
 24 6 26 12 26 18 c 0
EndSplineSet
EndChar

StartChar: uni044B
Encoding: 1099 1099 96
Width: 40
GlyphClass: 2
Flags: MW
HStem: 0 36<4 12 10 12 10 12 10 36 10 30> 30 20<4 12 4 10>
VStem: 4 32<0 50 0 50>
AnchorPoint: "+BBEENQQ3BEsEPARPBD0EPQQ+BDUA--0" 20 50 basechar 0
LayerCount: 2
Fore
SplineSet
20 18 m 0x60
 20 24 18 30 12 30 c 2
 10 30 l 1
 10 6 l 1
 12 6 l 2
 18 6 20 12 20 18 c 0x60
4 0 m 1xa0
 4 50 l 1
 10 50 l 1x60
 10 36 l 1
 12 36 l 2
 22 36 26 27 26 18 c 0
 26 9 22 0 12 0 c 2
 4 0 l 1xa0
30 0 m 1xa0
 30 50 l 1
 36 50 l 1x60
 36 0 l 1
 30 0 l 1xa0
EndSplineSet
EndChar

StartChar: uni044C
Encoding: 1100 1100 97
Width: 30
GlyphClass: 2
Flags: MW
HStem: 0 36<4 12 10 12 10 12> 30 20<4 12 4 10>
VStem: 4 22<13.5 22.5 13.5 50>
AnchorPoint: "+BBEENQQ3BEsEPARPBD0EPQQ+BDUA--0" 15 50 basechar 0
LayerCount: 2
Fore
SplineSet
20 18 m 0x60
 20 24 18 30 12 30 c 2
 10 30 l 1
 10 6 l 1
 12 6 l 2
 18 6 20 12 20 18 c 0x60
4 0 m 1xa0
 4 50 l 1
 10 50 l 1x60
 10 36 l 1
 12 36 l 2
 22 36 26 27 26 18 c 0
 26 9 22 0 12 0 c 2
 4 0 l 1xa0
EndSplineSet
EndChar

StartChar: uni044D
Encoding: 1101 1101 98
Width: 52
GlyphClass: 2
Flags: MW
HStem: 0 30<22 30> 24 26<22 30 19.5 42 22 22> 43 7
VStem: 41 7<30 30>
AnchorPoint: "+BBEENQQ3BEsEPARPBD0EPQQ+BDUA--0" 23 50 basechar 0
LayerCount: 2
Fore
SplineSet
48 25 m 0x50
 48 11 37 0 23 0 c 0xb0
 16 0 10 2 4 7 c 1
 8 11 l 1
 13 7 18 6 23 6 c 0
 34 6 41 14 42 24 c 1
 22 24 l 1x50
 22 30 l 1
 41 30 l 1
 39 38 32 44 23 44 c 0
 18 44 13 43 8 39 c 1
 4 43 l 1xb0
 10 48 16 50 23 50 c 0
 37 50 48 39 48 25 c 0x50
EndSplineSet
EndChar

StartChar: uni044E
Encoding: 1102 1102 99
Width: 70
GlyphClass: 2
Flags: MW
HStem: 0 28<4 16 4 16 10 48> 22 28<4 16 4 10>
VStem: 4 18<20 30 20 50>
AnchorPoint: "+BBEENQQ3BEsEPARPBD0EPQQ+BDUA--0" 41 50 basechar 0
LayerCount: 2
Fore
SplineSet
10 50 m 1x60
 10 28 l 1
 16 28 l 1xa0
 18 41 28 50 41 50 c 0x60
 55 50 66 39 66 25 c 0
 66 11 55 0 41 0 c 0xa0
 28 0 18 9 16 22 c 1
 10 22 l 1x60
 10 0 l 1
 4 0 l 1xa0
 4 50 l 1
 10 50 l 1x60
22 25 m 0
 22 15 30 6 41 6 c 0
 52 6 60 15 60 25 c 0
 60 35 52 44 41 44 c 0
 30 44 22 35 22 25 c 0
EndSplineSet
EndChar

StartChar: uni044F
Encoding: 1103 1103 100
Width: 30
GlyphClass: 2
Flags: MW
HStem: 0 32<4 20 4 20 18 26 18 20> 26 24<12 26 18 20 18 26>
VStem: 4 22<0 50 35.5 41.5>
AnchorPoint: "+BBEENQQ3BEsEPARPBD0EPQQ+BDUA--0" 16 50 basechar 0
LayerCount: 2
Fore
SplineSet
26 50 m 1x60
 26 0 l 1
 20 0 l 1xa0
 20 26 l 1
 18 26 l 1x60
 10 0 l 1
 4 0 l 1xa0
 12 26 l 1
 6 29 4 33 4 38 c 0
 4 45 8 50 18 50 c 2
 26 50 l 1x60
10 38 m 0
 10 34 12 32 18 32 c 2
 20 32 l 1
 20 44 l 1
 18 44 l 2
 12 44 10 42 10 38 c 0
EndSplineSet
EndChar

StartChar: uni0451
Encoding: 1105 1105 101
Width: 30
GlyphClass: 2
Flags: MW
HStem: 0 36<10 18 10 26 4 18> 30 20<10 18 10 10> 44 18<20 22 8 26 8 10>
VStem: 4 14<30 36 30 50> 17 9
LayerCount: 2
Fore
SplineSet
26 0 m 1xa8
 4 0 l 1xb0
 4 50 l 1x50
 26 50 l 1x48
 26 44 l 1xa8
 10 44 l 1
 10 36 l 1
 18 36 l 1xb0
 18 30 l 1
 10 30 l 1x50
 10 6 l 1
 26 6 l 1
 26 0 l 1xa8
5 58 m 0
 5 60 7 62 9 62 c 0
 11 62 13 60 13 58 c 0
 13 56 11 54 9 54 c 0
 7 54 5 56 5 58 c 0
17 58 m 0
 17 60 19 62 21 62 c 0
 23 62 25 60 25 58 c 0
 25 56 23 54 21 54 c 0
 19 54 17 56 17 58 c 0
EndSplineSet
EndChar

StartChar: uni0452
Encoding: 1106 1106 102
Width: 40
GlyphClass: 2
Flags: MW
HStem: 0 36<10 22 10 22 22 27> 30 20<16 22 16 16>
VStem: 4 12<44 44> 10 12<0 6> 22 14<0 12 6 12>
LayerCount: 2
Fore
SplineSet
4 44 m 1xa8
 4 50 l 1x68
 22 50 l 1x50
 22 44 l 1
 16 44 l 1
 16 36 l 1
 22 36 l 2
 32 36 36 31 36 24 c 2
 36 12 l 2
 36 5 32 0 22 0 c 1xa8
 22 6 l 1
 28 6 30 8 30 12 c 2
 30 24 l 2
 30 28 28 30 22 30 c 2x50
 16 30 l 1x68
 16 0 l 1xa8
 10 0 l 1
 10 44 l 1x90
 4 44 l 1xa8
EndSplineSet
EndChar

StartChar: uni0453
Encoding: 1107 1107 103
Width: 26
GlyphClass: 2
Flags: MW
HStem: 0 21G<4 4 4 10> 30 20G<4 22 22 22> 44 10<11 15 11 22 10 15>
VStem: 4 18<44 50 44 50 44 50>
LayerCount: 2
Fore
SplineSet
4 0 m 1xb0
 4 50 l 1
 22 50 l 1xd0
 22 44 l 1
 10 44 l 1
 10 0 l 1
 4 0 l 1xb0
16 61 m 1
 11 54 l 1
 15 54 l 1xb0
 22 58 l 1
 16 61 l 1
EndSplineSet
EndChar

StartChar: uni0454
Encoding: 1108 1108 104
Width: 52
GlyphClass: 2
Flags: MW
HStem: 0 7 0 30<22 30 11 32.5> 24 26<22 30 10 32.5> 43 7
VStem: 4 7<30 30 30 32>
AnchorPoint: "+BBEENQQ3BEsEPARPBD0EPQQ+BDUA--0" 29 50 basechar 0
LayerCount: 2
Fore
SplineSet
4 25 m 0xa8
 4 39 15 50 29 50 c 0
 36 50 42 48 48 43 c 1
 44 39 l 1
 39 43 34 44 29 44 c 0
 20 44 13 38 11 30 c 1
 30 30 l 1x58
 30 24 l 1
 10 24 l 1
 11 14 18 6 29 6 c 0
 34 6 39 7 44 11 c 1
 48 7 l 1
 42 2 36 0 29 0 c 0
 15 0 4 11 4 25 c 0xa8
EndSplineSet
EndChar

StartChar: uni0455
Encoding: 1109 1109 105
Width: 30
GlyphClass: 2
Flags: MW
HStem: 0 21G<10.5 19.5> 30 20G<10.5 19.5>
VStem: 2 26<9.5 13 37 40.5 9.5 40.5>
LayerCount: 2
Fore
SplineSet
22 37 m 1
 22 42 19 44 15 44 c 0
 11 44 8 42 8 37 c 0
 8 28 28 29 28 13 c 0
 28 6 24 0 15 0 c 0
 6 0 2 6 2 13 c 1
 8 13 l 1
 8 8 11 6 15 6 c 0
 19 6 22 8 22 13 c 0
 22 26 2 24 2 37 c 0
 2 44 6 50 15 50 c 0
 24 50 28 44 28 37 c 1
 22 37 l 1
EndSplineSet
EndChar

StartChar: uni0456
Encoding: 1110 1110 106
Width: 14
GlyphClass: 2
Flags: MW
HStem: 0 21G<4 10 4 4> 30 20G<4 10 10 10>
VStem: 4 6<0 50 0 50>
LayerCount: 2
Fore
SplineSet
4 50 m 1
 10 50 l 1
 10 0 l 1
 4 0 l 1
 4 50 l 1
EndSplineSet
EndChar

StartChar: uni0457
Encoding: 1111 1111 107
Width: 14
GlyphClass: 2
Flags: MW
HStem: 0 21G<4 10 4 4> 30 20G<4 10 10 10> 54 8<0 2 12 14>
VStem: -3 13<0 59> 4 13<0 59 50 59>
LayerCount: 2
Fore
SplineSet
4 50 m 1xe8
 10 50 l 1
 10 0 l 1xf0
 4 0 l 1
 4 50 l 1xe8
-3 58 m 0
 -3 60 -1 62 1 62 c 0
 3 62 5 60 5 58 c 0
 5 56 3 54 1 54 c 0
 -1 54 -3 56 -3 58 c 0
9 58 m 0
 9 60 11 62 13 62 c 0
 15 62 17 60 17 58 c 0xe8
 17 56 15 54 13 54 c 0
 11 54 9 56 9 58 c 0
EndSplineSet
EndChar

StartChar: uni0458
Encoding: 1112 1112 108
Width: 30
GlyphClass: 2
Flags: MW
HStem: 0 13<2 19.5> 30 20G<22 28 28 28>
VStem: 2 26<9.5 13>
LayerCount: 2
Fore
SplineSet
2 13 m 1
 8 13 l 1
 8 8 11 6 15 6 c 0
 19 6 22 8 22 13 c 2
 22 50 l 1
 28 50 l 1
 28 13 l 2
 28 6 24 0 15 0 c 0
 6 0 2 6 2 13 c 1
EndSplineSet
EndChar

StartChar: uni0459
Encoding: 1113 1113 109
Width: 49
GlyphClass: 2
Flags: MW
HStem: 0 36<0 31 0 31 23 31 29 31 29 31> 30 20<23 31 23 29> 37 13<23 29>
VStem: 23 22<13.5 22.5 13.5 37 13.5 37>
LayerCount: 2
Fore
SplineSet
0 0 m 1xb0
 23 50 l 1
 29 50 l 1
 29 36 l 1
 31 36 l 2
 41 36 45 27 45 18 c 0
 45 9 41 0 31 0 c 2
 23 0 l 1
 23 37 l 1
 7 0 l 1
 0 0 l 1xb0
39 18 m 0
 39 24 37 30 31 30 c 2
 29 30 l 1x50
 29 6 l 1
 31 6 l 2
 37 6 39 12 39 18 c 0
EndSplineSet
Ligature2: "'dlig' Discretionary Ligatures lookup 0 subtable" uni043B uni044C
EndChar

StartChar: uni045A
Encoding: 1114 1114 110
Width: 48
GlyphClass: 2
Flags: MW
HStem: 0 36<4 22 4 22 28 30 10 30 10 22> 30 20<4 22 4 10 4 28 4 30>
VStem: 4 24<6 30 36 50 6 50 6 50> 22 22<13.5 22.5 13.5 30 13.5 30 13.5 50>
LayerCount: 2
Fore
SplineSet
22 36 m 1x90
 22 50 l 1x50
 28 50 l 1x60
 28 36 l 1xa0
 30 36 l 2
 40 36 44 27 44 18 c 0
 44 9 40 0 30 0 c 2
 22 0 l 1x90
 22 30 l 1
 10 30 l 1x50
 10 0 l 1
 4 0 l 1xa0
 4 50 l 1
 10 50 l 1x60
 10 36 l 1
 22 36 l 1x90
38 18 m 0
 38 24 36 30 30 30 c 2
 28 30 l 1
 28 6 l 1x60
 30 6 l 2
 36 6 38 12 38 18 c 0
EndSplineSet
Ligature2: "'dlig' Discretionary Ligatures lookup 0 subtable" uni043D uni044C
EndChar

StartChar: uni045B
Encoding: 1115 1115 111
Width: 36
GlyphClass: 2
Flags: MW
HStem: 0 36<10 18 10 18 16 32 16 26> 30 20<16 18 16 16>
VStem: 4 12<44 44> 10 22<0 24 0 44 0 44>
LayerCount: 2
Fore
SplineSet
4 44 m 1xa0
 4 50 l 1
 22 50 l 1x60
 22 44 l 1
 16 44 l 1
 16 36 l 1xa0
 18 36 l 2
 28 36 32 31 32 24 c 2
 32 0 l 1
 26 0 l 1x90
 26 24 l 2
 26 28 24 30 18 30 c 2
 16 30 l 1x60
 16 0 l 1xa0
 10 0 l 1
 10 44 l 1x90
 4 44 l 1xa0
EndSplineSet
EndChar

StartChar: uni045C
Encoding: 1116 1116 112
Width: 36
GlyphClass: 2
Flags: MW
HStem: 0 21G<4 10 4 4 25 32 25 25> 30 20<4 10>
VStem: 4 11<35 35 35 50>
LayerCount: 2
Fore
SplineSet
4 50 m 1
 10 50 l 1
 10 40 l 1
 17 50 l 1
 25 50 l 1
 15 35 l 1
 32 0 l 1
 25 0 l 1
 10 30 l 1
 10 0 l 1
 4 0 l 1
 4 50 l 1
11 54 m 1
 16 61 l 1
 22 58 l 1
 15 54 l 1
 11 54 l 1
EndSplineSet
EndChar

StartChar: uni045E
Encoding: 1118 1118 113
Width: 30
GlyphClass: 2
Flags: MW
HStem: 0 21G<7 13 7 7> 30 20G<2 8 8 8 22 28 28 28>
VStem: 2 26<50 50>
LayerCount: 2
Fore
SplineSet
2 50 m 1
 8 50 l 1
 16 28 l 1
 22 50 l 1
 28 50 l 1
 13 0 l 1
 7 0 l 1
 13 20 l 1
 2 50 l 1
5 58 m 2
 8 62 l 1
 9 61 12 59 15 59 c 0
 18 59 21 61 22 62 c 1
 25 58 l 2
 23 56 20 54 15 54 c 0
 10 54 7 56 5 58 c 2
EndSplineSet
EndChar

StartChar: uni045F
Encoding: 1119 1119 114
Width: 30
GlyphClass: 2
Flags: MW
HStem: -6 12<12 18 12 12> 0 21G<4 12 4 4 18 18 18 26> 30 20G<4 10 10 10 20 26 26 26>
VStem: 4 22<0 50 0 50>
LayerCount: 2
Fore
SplineSet
12 0 m 1x70
 4 0 l 1x70
 4 50 l 1
 10 50 l 1
 10 6 l 1
 20 6 l 1xb0
 20 50 l 1
 26 50 l 1
 26 0 l 1
 18 0 l 1x70
 18 -6 l 1
 12 -6 l 1xb0
 12 0 l 1x70
EndSplineSet
EndChar

StartChar: uni0490
Encoding: 1168 1168 115
Width: 26
GlyphClass: 2
Flags: MW
HStem: 0 21G<4 4 4 10> 30 20G<4 16 16 16> 44 12<16 22 16 22 10 22>
VStem: 4 18<44 50 50 50>
LayerCount: 2
Fore
SplineSet
4 0 m 1xb0
 4 50 l 1
 16 50 l 1xd0
 16 56 l 1
 22 56 l 1
 22 44 l 1
 10 44 l 1
 10 0 l 1
 4 0 l 1xb0
EndSplineSet
EndChar

StartChar: uni0491
Encoding: 1169 1169 116
Width: 26
GlyphClass: 2
Flags: MW
HStem: 0 21G<4 4 4 10> 30 20G<4 16 16 16> 44 12<16 22 16 22 10 22>
VStem: 4 18<44 50 50 50>
LayerCount: 2
Fore
SplineSet
4 0 m 1xb0
 4 50 l 1
 16 50 l 1xd0
 16 56 l 1
 22 56 l 1
 22 44 l 1
 10 44 l 1
 10 0 l 1
 4 0 l 1xb0
EndSplineSet
EndChar

StartChar: uni04A4
Encoding: 1188 1188 117
AltUni2: 0004a5.ffffffff.0 0004a5.ffffffff.0
Width: 44
GlyphClass: 2
Flags: MW
HStem: 0 36<4 22 4 22 10 28 10 22> 30 20<4 22 4 10>
VStem: 4 24<0 44 0 50 0 50>
AnchorPoint: "+BBEENQQ3BEsEPARPBD0EPQQ+BDUA--0" 16 50 basechar 0
LayerCount: 2
Fore
SplineSet
22 36 m 1xa0
 22 50 l 1
 40 50 l 1x60
 40 44 l 1
 28 44 l 1
 28 0 l 1
 22 0 l 1xa0
 22 30 l 1
 10 30 l 1x60
 10 0 l 1
 4 0 l 1xa0
 4 50 l 1
 10 50 l 1x60
 10 36 l 1
 22 36 l 1xa0
EndSplineSet
Ligature2: "'dlig' Discretionary Ligatures lookup 0 subtable" uni043D uni0433
Ligature2: "'dlig' Discretionary Ligatures lookup 0 subtable" uni043D uni0413
Ligature2: "'dlig' Discretionary Ligatures lookup 0 subtable" uni041D uni0433
Ligature2: "'dlig' Discretionary Ligatures lookup 0 subtable" uni041D uni0413
EndChar

StartChar: uni04D2
Encoding: 1234 1234 118
AltUni2: 0004d3.ffffffff.0 0004d3.ffffffff.0
Width: 32
GlyphClass: 2
Flags: MW
HStem: 0 20<0 22 0 22 15 22 15 28> 14 36<21 22 13 28> 37 13<22 22>
VStem: 21 7<0 50>
AnchorPoint: "+BBEENQQ3BEsEPARPBD0EPQQ+BDUA--0" 24 50 basechar 0
LayerCount: 2
Fore
SplineSet
22 37 m 1xb0
 15 20 l 1
 22 20 l 1
 22 37 l 1xb0
0 0 m 1
 21 50 l 1
 28 50 l 1x50
 28 0 l 1
 22 0 l 1xb0
 22 14 l 1
 13 14 l 1x50
 7 0 l 1
 0 0 l 1
14 58 m 0
 14 60 16 62 18 62 c 0
 20 62 22 60 22 58 c 0
 22 56 20 54 18 54 c 0
 16 54 14 56 14 58 c 0
26 58 m 0
 26 60 28 62 30 62 c 0
 32 62 34 60 34 58 c 0
 34 56 32 54 30 54 c 0
 28 54 26 56 26 58 c 0
EndSplineSet
EndChar

StartChar: uni04D4
Encoding: 1236 1236 119
AltUni2: 0004d5.ffffffff.0 0004d5.ffffffff.0
Width: 48
GlyphClass: 2
Flags: MW
HStem: 0 20<0 22 0 22 15 22 15 44> 14 36<21 22 13 44> 37 13<22 22>
VStem: 21 7
LayerCount: 2
Fore
SplineSet
0 0 m 1xb0
 21 50 l 1
 44 50 l 1x50
 44 44 l 1
 28 44 l 1
 28 36 l 1
 36 36 l 1
 36 30 l 1
 28 30 l 1
 28 6 l 1
 44 6 l 1
 44 0 l 1
 22 0 l 1xb0
 22 14 l 1
 13 14 l 1x50
 7 0 l 1
 0 0 l 1xb0
22 37 m 1
 15 20 l 1
 22 20 l 1
 22 37 l 1
EndSplineSet
Ligature2: "'dlig' Discretionary Ligatures lookup 0 subtable" uni0430 uni0435
Ligature2: "'dlig' Discretionary Ligatures lookup 0 subtable" uni0430 uni0415
Ligature2: "'dlig' Discretionary Ligatures lookup 0 subtable" uni0410 uni0435
Ligature2: "'dlig' Discretionary Ligatures lookup 0 subtable" uni0410 uni0415
EndChar

StartChar: uni04DC
Encoding: 1244 1244 120
AltUni2: 0004dd.ffffffff.0 0004dd.ffffffff.0
Width: 54
GlyphClass: 2
Flags: MW
HStem: 0 21G<2 9 2 2 24 30 24 24 45 52 45 45> 30 20<9 24 9 30>
VStem: 19 11<0 35> 24 11<0 35 30 35 35 50>
AnchorPoint: "+BBEENQQ3BEsEPARPBD0EPQQ+BDUA--0" 27 50 basechar 0
LayerCount: 2
Fore
SplineSet
24 50 m 1xd0
 30 50 l 1
 30 40 l 1xe0
 37 50 l 1
 45 50 l 1
 35 35 l 1xd0
 52 0 l 1
 45 0 l 1
 30 30 l 1
 30 0 l 1xe0
 24 0 l 1
 24 30 l 1xd0
 9 0 l 1
 2 0 l 1
 19 35 l 1xe0
 9 50 l 1
 17 50 l 1
 24 40 l 1
 24 50 l 1xd0
17 58 m 0
 17 60 19 62 21 62 c 0
 23 62 25 60 25 58 c 0
 25 56 23 54 21 54 c 0
 19 54 17 56 17 58 c 0
29 58 m 0
 29 60 31 62 33 62 c 0
 35 62 37 60 37 58 c 0xd0
 37 56 35 54 33 54 c 0
 31 54 29 56 29 58 c 0
EndSplineSet
EndChar

StartChar: uni04DE
Encoding: 1246 1246 121
AltUni2: 0004df.ffffffff.0 0004df.ffffffff.0
Width: 38
GlyphClass: 2
Flags: MW
HStem: 0 32 26 24 30 20G<15 19 19 21>
VStem: 12 18
AnchorPoint: "+BBEENQQ3BEsEPARPBD0EPQQ+BDUA--0" 18 50 basechar 0
LayerCount: 2
Fore
SplineSet
8 58 m 0xb0
 8 60 10 62 12 62 c 0
 14 62 16 60 16 58 c 0
 16 56 14 54 12 54 c 0
 10 54 8 56 8 58 c 0xb0
20 58 m 0
 20 60 22 62 24 62 c 0
 26 62 28 60 28 58 c 0
 28 56 26 54 24 54 c 0
 22 54 20 56 20 58 c 0
7 11 m 1
 10 8 13 6 18 6 c 0
 24 6 28 10 28 15 c 0
 28 20 24 24 19 24 c 2
 15 24 l 1
 15 30 l 1
 19 30 l 2
 23 30 26 33 26 37 c 0
 26 41 23 44 18 44 c 0
 14 44 10 42 8 39 c 1
 4 44 l 1
 7 47 10 50 18 50 c 0x50
 26 50 32 44 32 37 c 0
 32 33 30 30 27 27 c 1
 31 24 34 20 34 15 c 0
 34 7 27 0 18 0 c 0
 10 0 7 3 3 6 c 1
 7 11 l 1
EndSplineSet
EndChar

StartChar: uni04E4
Encoding: 1252 1252 122
AltUni2: 0004e5.ffffffff.0 0004e5.ffffffff.0
Width: 32
GlyphClass: 2
Flags: MW
HStem: 0 16<4 10 4 10 10 28 10 22> 32 18<4 22>
VStem: 4 24<0 50 0 50>
AnchorPoint: "+BBEENQQ3BEsEPARPBD0EPQQ+BDUA--0" 16 50 basechar 0
LayerCount: 2
Fore
SplineSet
10 16 m 1
 22 50 l 1
 28 50 l 1
 28 0 l 1
 22 0 l 1
 22 32 l 1
 10 0 l 1
 4 0 l 1
 4 50 l 1
 10 50 l 1
 10 16 l 1
6 58 m 0
 6 60 8 62 10 62 c 0
 12 62 14 60 14 58 c 0
 14 56 12 54 10 54 c 0
 8 54 6 56 6 58 c 0
18 58 m 0
 18 60 20 62 22 62 c 0
 24 62 26 60 26 58 c 0
 26 56 24 54 22 54 c 0
 20 54 18 56 18 58 c 0
EndSplineSet
EndChar

StartChar: uni04E6
Encoding: 1254 1254 123
AltUni2: 0004e7.ffffffff.0 0004e7.ffffffff.0
Width: 58
GlyphClass: 2
Flags: MW
HStem: 0 21G<22 36> 30 20G<22 36>
VStem: 4 50<18 32>
AnchorPoint: "+BBEENQQ3BEsEPARPBD0EPQQ+BDUA--0" 29 50 basechar 0
LayerCount: 2
Fore
SplineSet
4 25 m 0
 4 39 15 50 29 50 c 0
 43 50 54 39 54 25 c 0
 54 11 43 0 29 0 c 0
 15 0 4 11 4 25 c 0
10 25 m 0
 10 15 18 6 29 6 c 0
 40 6 48 15 48 25 c 0
 48 35 40 44 29 44 c 0
 18 44 10 35 10 25 c 0
19 58 m 0
 19 60 21 62 23 62 c 0
 25 62 27 60 27 58 c 0
 27 56 25 54 23 54 c 0
 21 54 19 56 19 58 c 0
31 58 m 0
 31 60 33 62 35 62 c 0
 37 62 39 60 39 58 c 0
 39 56 37 54 35 54 c 0
 33 54 31 56 31 58 c 0
EndSplineSet
EndChar

StartChar: uni04F0
Encoding: 1264 1264 124
AltUni2: 0004f1.ffffffff.0 0004f1.ffffffff.0
Width: 30
GlyphClass: 1
Flags: MW
HStem: 0 21G<7 13 7 7> 30 20G<2 8 8 8 22 28 28 28>
VStem: 2 26<50 50>
LayerCount: 2
Fore
SplineSet
2 50 m 1
 8 50 l 1
 16 28 l 1
 22 50 l 1
 28 50 l 1
 13 0 l 1
 7 0 l 1
 13 20 l 1
 2 50 l 1
5 58 m 0
 5 60 7 62 9 62 c 0
 11 62 13 60 13 58 c 0
 13 56 11 54 9 54 c 0
 7 54 5 56 5 58 c 0
17 58 m 0
 17 60 19 62 21 62 c 0
 23 62 25 60 25 58 c 0
 25 56 23 54 21 54 c 0
 19 54 17 56 17 58 c 0
EndSplineSet
EndChar

StartChar: uni04F4
Encoding: 1268 1268 125
AltUni2: 0004f5.ffffffff.0 0004f5.ffffffff.0
Width: 30
GlyphClass: 2
Flags: MW
HStem: 0 21G<20 26 20 20> 0 32<18 26 18 20> 26 24<4 18 4 20>
VStem: 4 22<38 50 0 50>
AnchorPoint: "+BBEENQQ3BEsEPARPBD0EPQQ+BDUA--0" 15 50 basechar 0
LayerCount: 2
Fore
SplineSet
10 38 m 2xb0
 10 34 12 32 18 32 c 2
 20 32 l 1x50
 20 50 l 1
 26 50 l 1xb0
 26 0 l 1
 20 0 l 1x50
 20 26 l 1
 18 26 l 2
 8 26 4 31 4 38 c 2
 4 50 l 1
 10 50 l 1
 10 38 l 2xb0
5 58 m 0
 5 60 7 62 9 62 c 0
 11 62 13 60 13 58 c 0
 13 56 11 54 9 54 c 0
 7 54 5 56 5 58 c 0
17 58 m 0
 17 60 19 62 21 62 c 0
 23 62 25 60 25 58 c 0
 25 56 23 54 21 54 c 0
 19 54 17 56 17 58 c 0
EndSplineSet
EndChar

StartChar: uni04F8
Encoding: 1272 1272 126
AltUni2: 0004f9.ffffffff.0 0004f9.ffffffff.0
Width: 40
GlyphClass: 2
Flags: MW
HStem: 0 36<4 12 10 12 10 12 10 36 10 30> 30 20<4 12 4 10>
VStem: 4 32<0 50 0 50>
AnchorPoint: "+BBEENQQ3BEsEPARPBD0EPQQ+BDUA--0" 20 50 basechar 0
LayerCount: 2
Fore
SplineSet
20 18 m 0x60
 20 24 18 30 12 30 c 2
 10 30 l 1
 10 6 l 1
 12 6 l 2
 18 6 20 12 20 18 c 0x60
4 0 m 1xa0
 4 50 l 1
 10 50 l 1x60
 10 36 l 1
 12 36 l 2
 22 36 26 27 26 18 c 0
 26 9 22 0 12 0 c 2
 4 0 l 1xa0
30 0 m 1xa0
 30 50 l 1
 36 50 l 1x60
 36 0 l 1
 30 0 l 1xa0
10 58 m 0
 10 60 12 62 14 62 c 0
 16 62 18 60 18 58 c 0
 18 56 16 54 14 54 c 0
 12 54 10 56 10 58 c 0
22 58 m 0
 22 60 24 62 26 62 c 0
 28 62 30 60 30 58 c 0
 30 56 28 54 26 54 c 0
 24 54 22 56 22 58 c 0
EndSplineSet
EndChar

StartChar: uni2116
Encoding: 8470 8470 127
Width: 60
GlyphClass: 2
Flags: MW
HStem: 0 22<22 56 22 56> 16 34<4 22 4 56 4 32> 24 26 32 18<4 10> 43 7
VStem: 4 24<0 50 0 50> 22 15<34 38 34 50 34 50> 32 24<16 22 16 22 32.5 39.5>
LayerCount: 2
Fore
SplineSet
4 50 m 1x95
 10 50 l 1
 22 16 l 1
 22 50 l 1x92
 28 50 l 1x45
 28 0 l 1xa5
 22 0 l 1xa2
 10 32 l 1
 10 0 l 1
 4 0 l 1
 4 50 l 1x95
32 36 m 0
 32 43 37 48 44 48 c 0
 51 48 56 43 56 36 c 0x8d
 56 29 51 24 44 24 c 0xa2
 37 24 32 29 32 36 c 0
37 36 m 0x8a
 37 32 40 29 44 29 c 0x92
 48 29 51 32 51 36 c 0
 51 40 48 43 44 43 c 0
 40 43 37 40 37 36 c 0x8a
32 16 m 1x45
 32 22 l 1
 56 22 l 1xa5
 56 16 l 1
 32 16 l 1x45
EndSplineSet
EndChar

StartChar: AG
Encoding: 65537 -1 128
Width: 44
GlyphClass: 2
Flags: MW
HStem: 0 20<0 22 0 22 15 22 15 28> 14 36<21 22 13 40> 37 13<22 22>
VStem: 21 7<0 50>
LayerCount: 2
Fore
SplineSet
0 0 m 1xb0
 21 50 l 1
 40 50 l 1x50
 40 44 l 1
 28 44 l 1
 28 0 l 1
 22 0 l 1xb0
 22 14 l 1
 13 14 l 1x50
 7 0 l 1
 0 0 l 1xb0
22 37 m 1
 15 20 l 1
 22 20 l 1
 22 37 l 1
EndSplineSet
Ligature2: "'dlig' Discretionary Ligatures lookup 0 subtable" uni0430 uni0433
Ligature2: "'dlig' Discretionary Ligatures lookup 0 subtable" uni0430 uni0413
Ligature2: "'dlig' Discretionary Ligatures lookup 0 subtable" uni0410 uni0433
Ligature2: "'dlig' Discretionary Ligatures lookup 0 subtable" uni0410 uni0413
EndChar

StartChar: DG
Encoding: 65538 -1 129
Width: 52
GlyphClass: 2
Flags: MW
HStem: -6 12<36 40> 0 21G<10 34 10 10> 37 13<30 48>
VStem: 4 32<-7 44 6 44> 30 10<-6 37>
LayerCount: 2
Fore
SplineSet
10 6 m 1xb0
 30 50 l 1xa8
 48 50 l 1
 48 44 l 1
 36 44 l 1
 36 6 l 1xb0
 40 6 l 1
 40 -6 l 1
 34 -6 l 1xa8
 34 0 l 1
 10 0 l 1x70
 10 -7 l 1
 4 -7 l 1
 4 6 l 1
 10 6 l 1xb0
30 37 m 1
 16 6 l 1
 30 6 l 1
 30 37 l 1
EndSplineSet
Ligature2: "'dlig' Discretionary Ligatures lookup 0 subtable" uni0434 uni0433
Ligature2: "'dlig' Discretionary Ligatures lookup 0 subtable" uni0434 uni0413
Ligature2: "'dlig' Discretionary Ligatures lookup 0 subtable" uni0414 uni0433
Ligature2: "'dlig' Discretionary Ligatures lookup 0 subtable" uni0414 uni0413
EndChar

StartChar: HE
Encoding: 65539 -1 130
Width: 48
GlyphClass: 2
Flags: MW
HStem: 0 36<4 22 4 22 28 36 10 44 10 22> 30 20<4 22 4 10 28 36 28 28>
VStem: 4 24<6 30 36 44 6 50 6 50>
LayerCount: 2
Fore
SplineSet
22 36 m 1xa0
 22 50 l 1
 44 50 l 1x60
 44 44 l 1
 28 44 l 1
 28 36 l 1
 36 36 l 1xa0
 36 30 l 1
 28 30 l 1x60
 28 6 l 1
 44 6 l 1
 44 0 l 1
 22 0 l 1xa0
 22 30 l 1
 10 30 l 1x60
 10 0 l 1
 4 0 l 1xa0
 4 50 l 1
 10 50 l 1x60
 10 36 l 1
 22 36 l 1xa0
EndSplineSet
Ligature2: "'dlig' Discretionary Ligatures lookup 0 subtable" uni043D uni0435
Ligature2: "'dlig' Discretionary Ligatures lookup 0 subtable" uni043D uni0415
Ligature2: "'dlig' Discretionary Ligatures lookup 0 subtable" uni041D uni0435
Ligature2: "'dlig' Discretionary Ligatures lookup 0 subtable" uni041D uni0415
EndChar

StartChar: LE
Encoding: 65540 -1 131
Width: 49
GlyphClass: 2
Flags: MW
HStem: 0 21G<0 0 0 7 23 23 23 45> 37 13<23 45>
VStem: 0 29<0 30>
LayerCount: 2
Fore
SplineSet
0 0 m 1
 23 50 l 1
 45 50 l 1
 45 44 l 1
 29 44 l 1
 29 36 l 1
 37 36 l 1
 37 30 l 1
 29 30 l 1
 29 6 l 1
 45 6 l 1
 45 0 l 1
 23 0 l 1
 23 37 l 1
 7 0 l 1
 0 0 l 1
EndSplineSet
Ligature2: "'dlig' Discretionary Ligatures lookup 0 subtable" uni043B uni0435
Ligature2: "'dlig' Discretionary Ligatures lookup 0 subtable" uni043B uni0415
Ligature2: "'dlig' Discretionary Ligatures lookup 0 subtable" uni041B uni0435
Ligature2: "'dlig' Discretionary Ligatures lookup 0 subtable" uni041B uni0415
EndChar

StartChar: LG
Encoding: 65541 -1 132
Width: 45
GlyphClass: 2
Flags: MW
HStem: 0 21G<0 0 0 7 23 23 23 29> 37 13<23 41>
VStem: 0 29<0 44>
LayerCount: 2
Fore
SplineSet
0 0 m 1
 23 50 l 1
 41 50 l 1
 41 44 l 1
 29 44 l 1
 29 0 l 1
 23 0 l 1
 23 37 l 1
 7 0 l 1
 0 0 l 1
EndSplineSet
Ligature2: "'dlig' Discretionary Ligatures lookup 0 subtable" uni043B uni0433
Ligature2: "'dlig' Discretionary Ligatures lookup 0 subtable" uni043B uni0413
Ligature2: "'dlig' Discretionary Ligatures lookup 0 subtable" uni041B uni0433
Ligature2: "'dlig' Discretionary Ligatures lookup 0 subtable" uni041B uni0413
EndChar

StartChar: MG
Encoding: 65542 -1 133
Width: 60
GlyphClass: 2
Flags: MW
HStem: 0 21G<0 6 0 0 38 44 38 38> 40 10<25 25 23 31>
VStem: 30 14<29 29>
AnchorPoint: "+BBEENQQ3BEsEPARPBD0EPQQ+BDUA--0" 32 50 basechar 0
LayerCount: 2
Fore
SplineSet
23 50 m 1
 26 50 l 1
 31 40 l 1
 38 50 l 1
 56 50 l 1
 56 44 l 1
 44 44 l 1
 44 0 l 1
 38 0 l 1
 38 40 l 1
 30 29 l 1
 25 40 l 1
 6 0 l 1
 0 0 l 1
 23 50 l 1
EndSplineSet
Ligature2: "'dlig' Discretionary Ligatures lookup 0 subtable" uni043C uni0433
Ligature2: "'dlig' Discretionary Ligatures lookup 0 subtable" uni043C uni0413
Ligature2: "'dlig' Discretionary Ligatures lookup 0 subtable" uni041C uni0433
Ligature2: "'dlig' Discretionary Ligatures lookup 0 subtable" uni041C uni0413
EndChar

StartChar: YAE
Encoding: 65543 -1 134
Width: 46
GlyphClass: 2
Flags: MW
HStem: 0 32<4 20 4 20 18 42 18 20> 26 24<12 42 18 20 18 42>
VStem: 4 22<0 30 36 41.5>
AnchorPoint: "+BBEENQQ3BEsEPARPBD0EPQQ+BDUA--0" 16 50 basechar 0
LayerCount: 2
Fore
SplineSet
42 0 m 1xa0
 20 0 l 1xa0
 20 26 l 1
 18 26 l 1x60
 10 0 l 1
 4 0 l 1xa0
 12 26 l 1
 6 29 4 33 4 38 c 0
 4 45 8 50 18 50 c 2
 42 50 l 1x60
 42 44 l 1
 26 44 l 1
 26 36 l 1
 34 36 l 1
 34 30 l 1
 26 30 l 1
 26 6 l 1
 42 6 l 1
 42 0 l 1xa0
10 38 m 0
 10 34 12 32 18 32 c 2
 20 32 l 1
 20 44 l 1
 18 44 l 2
 12 44 10 42 10 38 c 0
EndSplineSet
Ligature2: "'dlig' Discretionary Ligatures lookup 0 subtable" uni044F uni0435
Ligature2: "'dlig' Discretionary Ligatures lookup 0 subtable" uni044F uni0415
Ligature2: "'dlig' Discretionary Ligatures lookup 0 subtable" uni042F uni0435
Ligature2: "'dlig' Discretionary Ligatures lookup 0 subtable" uni042F uni0415
EndChar
